<svg xmlns="http://www.w3.org/2000/svg" xmlns:xlink="http://www.w3.org/1999/xlink" width="169" height="49" viewBox="0 0 169 49">
    <defs>
        <path id="a" d="M4.913.256C2.346.256.265 2.362.265 4.96s2.08 4.704 4.648 4.704h9.453L2.868 21.299a4.743 4.743 0 0 0 0 6.652 4.608 4.608 0 0 0 6.574 0l11.44-11.577v9.197c0 2.597 2.082 4.704 4.65 4.704 2.566 0 4.648-2.107 4.648-4.704V4.96c0-2.598-2.082-4.704-4.649-4.704H4.913z"/>
        <path id="c" d="M4.913.256C2.346.256.265 2.362.265 4.96s2.08 4.704 4.648 4.704h9.453L2.868 21.299a4.743 4.743 0 0 0 0 6.652 4.608 4.608 0 0 0 6.574 0l11.44-11.577v9.197c0 2.597 2.082 4.704 4.65 4.704 2.566 0 4.648-2.107 4.648-4.704V4.96c0-2.598-2.082-4.704-4.649-4.704H4.913z"/>
        <path id="e" d="M4.913.256C2.346.256.265 2.362.265 4.96s2.08 4.704 4.648 4.704h9.453L2.868 21.299a4.743 4.743 0 0 0 0 6.652 4.608 4.608 0 0 0 6.574 0l11.44-11.577v9.197c0 2.597 2.082 4.704 4.65 4.704 2.566 0 4.648-2.107 4.648-4.704V4.96c0-2.598-2.082-4.704-4.649-4.704H4.913z"/>
        <path id="g" d="M4.913.256C2.346.256.265 2.362.265 4.96s2.08 4.704 4.648 4.704h9.453L2.868 21.299a4.743 4.743 0 0 0 0 6.652 4.608 4.608 0 0 0 6.574 0l11.44-11.577v9.197c0 2.597 2.082 4.704 4.65 4.704 2.566 0 4.648-2.107 4.648-4.704V4.96c0-2.598-2.082-4.704-4.649-4.704H4.913z"/>
        <path id="i" d="M4.913.256C2.346.256.265 2.362.265 4.96s2.08 4.704 4.648 4.704h9.453L2.868 21.299a4.743 4.743 0 0 0 0 6.652 4.608 4.608 0 0 0 6.574 0l11.44-11.577v9.197c0 2.597 2.082 4.704 4.65 4.704 2.566 0 4.648-2.107 4.648-4.704V4.96c0-2.598-2.082-4.704-4.649-4.704H4.913z"/>
        <path id="k" d="M4.913.256C2.346.256.265 2.362.265 4.96s2.08 4.704 4.648 4.704h9.453L2.868 21.299a4.743 4.743 0 0 0 0 6.652 4.608 4.608 0 0 0 6.574 0l11.44-11.577v9.197c0 2.597 2.082 4.704 4.65 4.704 2.566 0 4.648-2.107 4.648-4.704V4.96c0-2.598-2.082-4.704-4.649-4.704H4.913z"/>
        <path id="m" d="M4.913.256C2.346.256.265 2.362.265 4.96s2.08 4.704 4.648 4.704h9.453L2.868 21.299a4.743 4.743 0 0 0 0 6.652 4.608 4.608 0 0 0 6.574 0l11.44-11.577v9.197c0 2.597 2.082 4.704 4.65 4.704 2.566 0 4.648-2.107 4.648-4.704V4.96c0-2.598-2.082-4.704-4.649-4.704H4.913z"/>
        <path id="o" d="M4.913.256C2.346.256.265 2.362.265 4.96s2.08 4.704 4.648 4.704h9.453L2.868 21.299a4.743 4.743 0 0 0 0 6.652 4.608 4.608 0 0 0 6.574 0l11.44-11.577v9.197c0 2.597 2.082 4.704 4.65 4.704 2.566 0 4.648-2.107 4.648-4.704V4.96c0-2.598-2.082-4.704-4.649-4.704H4.913z"/>
        <path id="q" d="M4.913.256C2.346.256.265 2.362.265 4.96s2.08 4.704 4.648 4.704h9.453L2.868 21.299a4.743 4.743 0 0 0 0 6.652 4.608 4.608 0 0 0 6.574 0l11.44-11.577v9.197c0 2.597 2.082 4.704 4.65 4.704 2.566 0 4.648-2.107 4.648-4.704V4.96c0-2.598-2.082-4.704-4.649-4.704H4.913z"/>
        <path id="s" d="M4.913.256C2.346.256.265 2.362.265 4.96s2.08 4.704 4.648 4.704h9.453L2.868 21.299a4.743 4.743 0 0 0 0 6.652 4.608 4.608 0 0 0 6.574 0l11.44-11.577v9.197c0 2.597 2.082 4.704 4.65 4.704 2.566 0 4.648-2.107 4.648-4.704V4.96c0-2.598-2.082-4.704-4.649-4.704H4.913z"/>
        <path id="u" d="M4.913.256C2.346.256.265 2.362.265 4.96s2.08 4.704 4.648 4.704h9.453L2.868 21.299a4.743 4.743 0 0 0 0 6.652 4.608 4.608 0 0 0 6.574 0l11.44-11.577v9.197c0 2.597 2.082 4.704 4.65 4.704 2.566 0 4.648-2.107 4.648-4.704V4.96c0-2.598-2.082-4.704-4.649-4.704H4.913z"/>
        <path id="w" d="M4.913.256C2.346.256.265 2.362.265 4.96s2.08 4.704 4.648 4.704h9.453L2.868 21.299a4.743 4.743 0 0 0 0 6.652 4.608 4.608 0 0 0 6.574 0l11.44-11.577v9.197c0 2.597 2.082 4.704 4.65 4.704 2.566 0 4.648-2.107 4.648-4.704V4.96c0-2.598-2.082-4.704-4.649-4.704H4.913z"/>
        <path id="y" d="M4.913.256C2.346.256.265 2.362.265 4.96s2.08 4.704 4.648 4.704h9.453L2.868 21.299a4.743 4.743 0 0 0 0 6.652 4.608 4.608 0 0 0 6.574 0l11.44-11.577v9.197c0 2.597 2.082 4.704 4.65 4.704 2.566 0 4.648-2.107 4.648-4.704V4.96c0-2.598-2.082-4.704-4.649-4.704H4.913z"/>
        <path id="A" d="M4.913.256C2.346.256.265 2.362.265 4.96s2.08 4.704 4.648 4.704h9.453L2.868 21.299a4.743 4.743 0 0 0 0 6.652 4.608 4.608 0 0 0 6.574 0l11.44-11.577v9.197c0 2.597 2.082 4.704 4.65 4.704 2.566 0 4.648-2.107 4.648-4.704V4.96c0-2.598-2.082-4.704-4.649-4.704H4.913z"/>
        <path id="C" d="M4.913.256C2.346.256.265 2.362.265 4.96s2.08 4.704 4.648 4.704h9.453L2.868 21.299a4.743 4.743 0 0 0 0 6.652 4.608 4.608 0 0 0 6.574 0l11.44-11.577v9.197c0 2.597 2.082 4.704 4.65 4.704 2.566 0 4.648-2.107 4.648-4.704V4.96c0-2.598-2.082-4.704-4.649-4.704H4.913z"/>
        <path id="E" d="M4.913.256C2.346.256.265 2.362.265 4.96s2.08 4.704 4.648 4.704h9.453L2.868 21.299a4.743 4.743 0 0 0 0 6.652 4.608 4.608 0 0 0 6.574 0l11.44-11.577v9.197c0 2.597 2.082 4.704 4.65 4.704 2.566 0 4.648-2.107 4.648-4.704V4.96c0-2.598-2.082-4.704-4.649-4.704H4.913z"/>
        <path id="G" d="M4.913.256C2.346.256.265 2.362.265 4.96s2.08 4.704 4.648 4.704h9.453L2.868 21.299a4.743 4.743 0 0 0 0 6.652 4.608 4.608 0 0 0 6.574 0l11.44-11.577v9.197c0 2.597 2.082 4.704 4.65 4.704 2.566 0 4.648-2.107 4.648-4.704V4.96c0-2.598-2.082-4.704-4.649-4.704H4.913z"/>
        <path id="I" d="M4.913.256C2.346.256.265 2.362.265 4.96s2.08 4.704 4.648 4.704h9.453L2.868 21.299a4.743 4.743 0 0 0 0 6.652 4.608 4.608 0 0 0 6.574 0l11.44-11.577v9.197c0 2.597 2.082 4.704 4.65 4.704 2.566 0 4.648-2.107 4.648-4.704V4.96c0-2.598-2.082-4.704-4.649-4.704H4.913z"/>
        <path id="K" d="M4.913.256C2.346.256.265 2.362.265 4.96s2.08 4.704 4.648 4.704h9.453L2.868 21.299a4.743 4.743 0 0 0 0 6.652 4.608 4.608 0 0 0 6.574 0l11.44-11.577v9.197c0 2.597 2.082 4.704 4.65 4.704 2.566 0 4.648-2.107 4.648-4.704V4.96c0-2.598-2.082-4.704-4.649-4.704H4.913z"/>
        <path id="M" d="M4.913.256C2.346.256.265 2.362.265 4.96s2.08 4.704 4.648 4.704h9.453L2.868 21.299a4.743 4.743 0 0 0 0 6.652 4.608 4.608 0 0 0 6.574 0l11.44-11.577v9.197c0 2.597 2.082 4.704 4.65 4.704 2.566 0 4.648-2.107 4.648-4.704V4.96c0-2.598-2.082-4.704-4.649-4.704H4.913z"/>
        <path id="O" d="M4.913.256C2.346.256.265 2.362.265 4.96s2.08 4.704 4.648 4.704h9.453L2.868 21.299a4.743 4.743 0 0 0 0 6.652 4.608 4.608 0 0 0 6.574 0l11.44-11.577v9.197c0 2.597 2.082 4.704 4.65 4.704 2.566 0 4.648-2.107 4.648-4.704V4.96c0-2.598-2.082-4.704-4.649-4.704H4.913z"/>
        <path id="Q" d="M4.913.256C2.346.256.265 2.362.265 4.96s2.08 4.704 4.648 4.704h9.453L2.868 21.299a4.743 4.743 0 0 0 0 6.652 4.608 4.608 0 0 0 6.574 0l11.44-11.577v9.197c0 2.597 2.082 4.704 4.65 4.704 2.566 0 4.648-2.107 4.648-4.704V4.96c0-2.598-2.082-4.704-4.649-4.704H4.913z"/>
        <path id="S" d="M4.913.256C2.346.256.265 2.362.265 4.96s2.08 4.704 4.648 4.704h9.453L2.868 21.299a4.743 4.743 0 0 0 0 6.652 4.608 4.608 0 0 0 6.574 0l11.44-11.577v9.197c0 2.597 2.082 4.704 4.65 4.704 2.566 0 4.648-2.107 4.648-4.704V4.96c0-2.598-2.082-4.704-4.649-4.704H4.913z"/>
        <path id="U" d="M4.913.256C2.346.256.265 2.362.265 4.96s2.08 4.704 4.648 4.704h9.453L2.868 21.299a4.743 4.743 0 0 0 0 6.652 4.608 4.608 0 0 0 6.574 0l11.44-11.577v9.197c0 2.597 2.082 4.704 4.65 4.704 2.566 0 4.648-2.107 4.648-4.704V4.96c0-2.598-2.082-4.704-4.649-4.704H4.913z"/>
        <path id="W" d="M4.913.256C2.346.256.265 2.362.265 4.96s2.08 4.704 4.648 4.704h9.453L2.868 21.299a4.743 4.743 0 0 0 0 6.652 4.608 4.608 0 0 0 6.574 0l11.44-11.577v9.197c0 2.597 2.082 4.704 4.65 4.704 2.566 0 4.648-2.107 4.648-4.704V4.96c0-2.598-2.082-4.704-4.649-4.704H4.913z"/>
        <path id="Y" d="M4.913.256C2.346.256.265 2.362.265 4.96s2.08 4.704 4.648 4.704h9.453L2.868 21.299a4.743 4.743 0 0 0 0 6.652 4.608 4.608 0 0 0 6.574 0l11.44-11.577v9.197c0 2.597 2.082 4.704 4.65 4.704 2.566 0 4.648-2.107 4.648-4.704V4.96c0-2.598-2.082-4.704-4.649-4.704H4.913z"/>
        <path id="aa" d="M4.913.256C2.346.256.265 2.362.265 4.96s2.08 4.704 4.648 4.704h9.453L2.868 21.299a4.743 4.743 0 0 0 0 6.652 4.608 4.608 0 0 0 6.574 0l11.44-11.577v9.197c0 2.597 2.082 4.704 4.65 4.704 2.566 0 4.648-2.107 4.648-4.704V4.96c0-2.598-2.082-4.704-4.649-4.704H4.913z"/>
        <path id="ac" d="M4.913.256C2.346.256.265 2.362.265 4.96s2.08 4.704 4.648 4.704h9.453L2.868 21.299a4.743 4.743 0 0 0 0 6.652 4.608 4.608 0 0 0 6.574 0l11.44-11.577v9.197c0 2.597 2.082 4.704 4.65 4.704 2.566 0 4.648-2.107 4.648-4.704V4.96c0-2.598-2.082-4.704-4.649-4.704H4.913z"/>
        <path id="ae" d="M4.913.256C2.346.256.265 2.362.265 4.96s2.08 4.704 4.648 4.704h9.453L2.868 21.299a4.743 4.743 0 0 0 0 6.652 4.608 4.608 0 0 0 6.574 0l11.44-11.577v9.197c0 2.597 2.082 4.704 4.65 4.704 2.566 0 4.648-2.107 4.648-4.704V4.96c0-2.598-2.082-4.704-4.649-4.704H4.913z"/>
        <path id="ag" d="M4.913.256C2.346.256.265 2.362.265 4.96s2.08 4.704 4.648 4.704h9.453L2.868 21.299a4.743 4.743 0 0 0 0 6.652 4.608 4.608 0 0 0 6.574 0l11.44-11.577v9.197c0 2.597 2.082 4.704 4.65 4.704 2.566 0 4.648-2.107 4.648-4.704V4.96c0-2.598-2.082-4.704-4.649-4.704H4.913z"/>
        <path id="ai" d="M4.913.256C2.346.256.265 2.362.265 4.96s2.08 4.704 4.648 4.704h9.453L2.868 21.299a4.743 4.743 0 0 0 0 6.652 4.608 4.608 0 0 0 6.574 0l11.44-11.577v9.197c0 2.597 2.082 4.704 4.65 4.704 2.566 0 4.648-2.107 4.648-4.704V4.96c0-2.598-2.082-4.704-4.649-4.704H4.913z"/>
        <path id="ak" d="M4.913.256C2.346.256.265 2.362.265 4.96s2.08 4.704 4.648 4.704h9.453L2.868 21.299a4.743 4.743 0 0 0 0 6.652 4.608 4.608 0 0 0 6.574 0l11.44-11.577v9.197c0 2.597 2.082 4.704 4.65 4.704 2.566 0 4.648-2.107 4.648-4.704V4.96c0-2.598-2.082-4.704-4.649-4.704H4.913z"/>
        <path id="am" d="M4.913.256C2.346.256.265 2.362.265 4.96s2.08 4.704 4.648 4.704h9.453L2.868 21.299a4.743 4.743 0 0 0 0 6.652 4.608 4.608 0 0 0 6.574 0l11.44-11.577v9.197c0 2.597 2.082 4.704 4.65 4.704 2.566 0 4.648-2.107 4.648-4.704V4.96c0-2.598-2.082-4.704-4.649-4.704H4.913z"/>
        <path id="ao" d="M4.913.256C2.346.256.265 2.362.265 4.96s2.08 4.704 4.648 4.704h9.453L2.868 21.299a4.743 4.743 0 0 0 0 6.652 4.608 4.608 0 0 0 6.574 0l11.44-11.577v9.197c0 2.597 2.082 4.704 4.65 4.704 2.566 0 4.648-2.107 4.648-4.704V4.96c0-2.598-2.082-4.704-4.649-4.704H4.913z"/>
        <path id="aq" d="M4.913.256C2.346.256.265 2.362.265 4.96s2.08 4.704 4.648 4.704h9.453L2.868 21.299a4.743 4.743 0 0 0 0 6.652 4.608 4.608 0 0 0 6.574 0l11.44-11.577v9.197c0 2.597 2.082 4.704 4.65 4.704 2.566 0 4.648-2.107 4.648-4.704V4.96c0-2.598-2.082-4.704-4.649-4.704H4.913z"/>
        <path id="as" d="M4.913.256C2.346.256.265 2.362.265 4.96s2.08 4.704 4.648 4.704h9.453L2.868 21.299a4.743 4.743 0 0 0 0 6.652 4.608 4.608 0 0 0 6.574 0l11.44-11.577v9.197c0 2.597 2.082 4.704 4.65 4.704 2.566 0 4.648-2.107 4.648-4.704V4.96c0-2.598-2.082-4.704-4.649-4.704H4.913z"/>
        <path id="au" d="M4.913.256C2.346.256.265 2.362.265 4.96s2.08 4.704 4.648 4.704h9.453L2.868 21.299a4.743 4.743 0 0 0 0 6.652 4.608 4.608 0 0 0 6.574 0l11.44-11.577v9.197c0 2.597 2.082 4.704 4.65 4.704 2.566 0 4.648-2.107 4.648-4.704V4.96c0-2.598-2.082-4.704-4.649-4.704H4.913z"/>
        <path id="aw" d="M4.913.256C2.346.256.265 2.362.265 4.96s2.08 4.704 4.648 4.704h9.453L2.868 21.299a4.743 4.743 0 0 0 0 6.652 4.608 4.608 0 0 0 6.574 0l11.44-11.577v9.197c0 2.597 2.082 4.704 4.65 4.704 2.566 0 4.648-2.107 4.648-4.704V4.96c0-2.598-2.082-4.704-4.649-4.704H4.913z"/>
        <path id="ay" d="M4.913.256C2.346.256.265 2.362.265 4.96s2.08 4.704 4.648 4.704h9.453L2.868 21.299a4.743 4.743 0 0 0 0 6.652 4.608 4.608 0 0 0 6.574 0l11.44-11.577v9.197c0 2.597 2.082 4.704 4.65 4.704 2.566 0 4.648-2.107 4.648-4.704V4.96c0-2.598-2.082-4.704-4.649-4.704H4.913z"/>
        <path id="aA" d="M4.913.256C2.346.256.265 2.362.265 4.96s2.08 4.704 4.648 4.704h9.453L2.868 21.299a4.743 4.743 0 0 0 0 6.652 4.608 4.608 0 0 0 6.574 0l11.44-11.577v9.197c0 2.597 2.082 4.704 4.65 4.704 2.566 0 4.648-2.107 4.648-4.704V4.96c0-2.598-2.082-4.704-4.649-4.704H4.913z"/>
        <path id="aC" d="M4.913.256C2.346.256.265 2.362.265 4.96s2.08 4.704 4.648 4.704h9.453L2.868 21.299a4.743 4.743 0 0 0 0 6.652 4.608 4.608 0 0 0 6.574 0l11.44-11.577v9.197c0 2.597 2.082 4.704 4.65 4.704 2.566 0 4.648-2.107 4.648-4.704V4.96c0-2.598-2.082-4.704-4.649-4.704H4.913z"/>
        <path id="aE" d="M4.913.256C2.346.256.265 2.362.265 4.96s2.08 4.704 4.648 4.704h9.453L2.868 21.299a4.743 4.743 0 0 0 0 6.652 4.608 4.608 0 0 0 6.574 0l11.44-11.577v9.197c0 2.597 2.082 4.704 4.65 4.704 2.566 0 4.648-2.107 4.648-4.704V4.96c0-2.598-2.082-4.704-4.649-4.704H4.913z"/>
        <path id="aG" d="M4.913.256C2.346.256.265 2.362.265 4.96s2.08 4.704 4.648 4.704h9.453L2.868 21.299a4.743 4.743 0 0 0 0 6.652 4.608 4.608 0 0 0 6.574 0l11.44-11.577v9.197c0 2.597 2.082 4.704 4.65 4.704 2.566 0 4.648-2.107 4.648-4.704V4.96c0-2.598-2.082-4.704-4.649-4.704H4.913z"/>
        <path id="aI" d="M4.913.256C2.346.256.265 2.362.265 4.96s2.08 4.704 4.648 4.704h9.453L2.868 21.299a4.743 4.743 0 0 0 0 6.652 4.608 4.608 0 0 0 6.574 0l11.44-11.577v9.197c0 2.597 2.082 4.704 4.65 4.704 2.566 0 4.648-2.107 4.648-4.704V4.96c0-2.598-2.082-4.704-4.649-4.704H4.913z"/>
        <path id="aK" d="M4.913.256C2.346.256.265 2.362.265 4.96s2.08 4.704 4.648 4.704h9.453L2.868 21.299a4.743 4.743 0 0 0 0 6.652 4.608 4.608 0 0 0 6.574 0l11.44-11.577v9.197c0 2.597 2.082 4.704 4.65 4.704 2.566 0 4.648-2.107 4.648-4.704V4.96c0-2.598-2.082-4.704-4.649-4.704H4.913z"/>
        <path id="aM" d="M4.913.256C2.346.256.265 2.362.265 4.96s2.08 4.704 4.648 4.704h9.453L2.868 21.299a4.743 4.743 0 0 0 0 6.652 4.608 4.608 0 0 0 6.574 0l11.44-11.577v9.197c0 2.597 2.082 4.704 4.65 4.704 2.566 0 4.648-2.107 4.648-4.704V4.96c0-2.598-2.082-4.704-4.649-4.704H4.913z"/>
        <path id="aO" d="M4.913.256C2.346.256.265 2.362.265 4.96s2.08 4.704 4.648 4.704h9.453L2.868 21.299a4.743 4.743 0 0 0 0 6.652 4.608 4.608 0 0 0 6.574 0l11.44-11.577v9.197c0 2.597 2.082 4.704 4.65 4.704 2.566 0 4.648-2.107 4.648-4.704V4.96c0-2.598-2.082-4.704-4.649-4.704H4.913z"/>
        <path id="aQ" d="M4.913.256C2.346.256.265 2.362.265 4.96s2.08 4.704 4.648 4.704h9.453L2.868 21.299a4.743 4.743 0 0 0 0 6.652 4.608 4.608 0 0 0 6.574 0l11.44-11.577v9.197c0 2.597 2.082 4.704 4.65 4.704 2.566 0 4.648-2.107 4.648-4.704V4.96c0-2.598-2.082-4.704-4.649-4.704H4.913z"/>
        <path id="aS" d="M4.913.256C2.346.256.265 2.362.265 4.96s2.08 4.704 4.648 4.704h9.453L2.868 21.299a4.743 4.743 0 0 0 0 6.652 4.608 4.608 0 0 0 6.574 0l11.44-11.577v9.197c0 2.597 2.082 4.704 4.65 4.704 2.566 0 4.648-2.107 4.648-4.704V4.96c0-2.598-2.082-4.704-4.649-4.704H4.913z"/>
        <path id="aU" d="M4.913.256C2.346.256.265 2.362.265 4.96s2.08 4.704 4.648 4.704h9.453L2.868 21.299a4.743 4.743 0 0 0 0 6.652 4.608 4.608 0 0 0 6.574 0l11.44-11.577v9.197c0 2.597 2.082 4.704 4.65 4.704 2.566 0 4.648-2.107 4.648-4.704V4.96c0-2.598-2.082-4.704-4.649-4.704H4.913z"/>
        <path id="aW" d="M4.913.256C2.346.256.265 2.362.265 4.96s2.08 4.704 4.648 4.704h9.453L2.868 21.299a4.743 4.743 0 0 0 0 6.652 4.608 4.608 0 0 0 6.574 0l11.44-11.577v9.197c0 2.597 2.082 4.704 4.65 4.704 2.566 0 4.648-2.107 4.648-4.704V4.96c0-2.598-2.082-4.704-4.649-4.704H4.913z"/>
        <path id="aY" d="M4.913.256C2.346.256.265 2.362.265 4.96s2.08 4.704 4.648 4.704h9.453L2.868 21.299a4.743 4.743 0 0 0 0 6.652 4.608 4.608 0 0 0 6.574 0l11.44-11.577v9.197c0 2.597 2.082 4.704 4.65 4.704 2.566 0 4.648-2.107 4.648-4.704V4.96c0-2.598-2.082-4.704-4.649-4.704H4.913z"/>
        <path id="ba" d="M4.913.256C2.346.256.265 2.362.265 4.96s2.08 4.704 4.648 4.704h9.453L2.868 21.299a4.743 4.743 0 0 0 0 6.652 4.608 4.608 0 0 0 6.574 0l11.44-11.577v9.197c0 2.597 2.082 4.704 4.65 4.704 2.566 0 4.648-2.107 4.648-4.704V4.96c0-2.598-2.082-4.704-4.649-4.704H4.913z"/>
        <path id="bc" d="M4.913.256C2.346.256.265 2.362.265 4.96s2.08 4.704 4.648 4.704h9.453L2.868 21.299a4.743 4.743 0 0 0 0 6.652 4.608 4.608 0 0 0 6.574 0l11.44-11.577v9.197c0 2.597 2.082 4.704 4.65 4.704 2.566 0 4.648-2.107 4.648-4.704V4.96c0-2.598-2.082-4.704-4.649-4.704H4.913z"/>
        <path id="be" d="M4.913.256C2.346.256.265 2.362.265 4.96s2.08 4.704 4.648 4.704h9.453L2.868 21.299a4.743 4.743 0 0 0 0 6.652 4.608 4.608 0 0 0 6.574 0l11.44-11.577v9.197c0 2.597 2.082 4.704 4.65 4.704 2.566 0 4.648-2.107 4.648-4.704V4.96c0-2.598-2.082-4.704-4.649-4.704H4.913z"/>
        <path id="bg" d="M4.913.256C2.346.256.265 2.362.265 4.96s2.08 4.704 4.648 4.704h9.453L2.868 21.299a4.743 4.743 0 0 0 0 6.652 4.608 4.608 0 0 0 6.574 0l11.44-11.577v9.197c0 2.597 2.082 4.704 4.65 4.704 2.566 0 4.648-2.107 4.648-4.704V4.96c0-2.598-2.082-4.704-4.649-4.704H4.913z"/>
        <path id="bi" d="M4.913.256C2.346.256.265 2.362.265 4.96s2.08 4.704 4.648 4.704h9.453L2.868 21.299a4.743 4.743 0 0 0 0 6.652 4.608 4.608 0 0 0 6.574 0l11.44-11.577v9.197c0 2.597 2.082 4.704 4.65 4.704 2.566 0 4.648-2.107 4.648-4.704V4.96c0-2.598-2.082-4.704-4.649-4.704H4.913z"/>
        <path id="bk" d="M4.913.256C2.346.256.265 2.362.265 4.96s2.08 4.704 4.648 4.704h9.453L2.868 21.299a4.743 4.743 0 0 0 0 6.652 4.608 4.608 0 0 0 6.574 0l11.44-11.577v9.197c0 2.597 2.082 4.704 4.65 4.704 2.566 0 4.648-2.107 4.648-4.704V4.96c0-2.598-2.082-4.704-4.649-4.704H4.913z"/>
        <path id="bm" d="M4.913.256C2.346.256.265 2.362.265 4.96s2.08 4.704 4.648 4.704h9.453L2.868 21.299a4.743 4.743 0 0 0 0 6.652 4.608 4.608 0 0 0 6.574 0l11.44-11.577v9.197c0 2.597 2.082 4.704 4.65 4.704 2.566 0 4.648-2.107 4.648-4.704V4.96c0-2.598-2.082-4.704-4.649-4.704H4.913z"/>
        <path id="bo" d="M4.913.256C2.346.256.265 2.362.265 4.96s2.08 4.704 4.648 4.704h9.453L2.868 21.299a4.743 4.743 0 0 0 0 6.652 4.608 4.608 0 0 0 6.574 0l11.44-11.577v9.197c0 2.597 2.082 4.704 4.65 4.704 2.566 0 4.648-2.107 4.648-4.704V4.96c0-2.598-2.082-4.704-4.649-4.704H4.913z"/>
        <path id="bq" d="M4.913.256C2.346.256.265 2.362.265 4.96s2.08 4.704 4.648 4.704h9.453L2.868 21.299a4.743 4.743 0 0 0 0 6.652 4.608 4.608 0 0 0 6.574 0l11.44-11.577v9.197c0 2.597 2.082 4.704 4.65 4.704 2.566 0 4.648-2.107 4.648-4.704V4.96c0-2.598-2.082-4.704-4.649-4.704H4.913z"/>
        <path id="bs" d="M4.913.256C2.346.256.265 2.362.265 4.96s2.08 4.704 4.648 4.704h9.453L2.868 21.299a4.743 4.743 0 0 0 0 6.652 4.608 4.608 0 0 0 6.574 0l11.44-11.577v9.197c0 2.597 2.082 4.704 4.65 4.704 2.566 0 4.648-2.107 4.648-4.704V4.96c0-2.598-2.082-4.704-4.649-4.704H4.913z"/>
        <path id="bu" d="M4.913.256C2.346.256.265 2.362.265 4.96s2.08 4.704 4.648 4.704h9.453L2.868 21.299a4.743 4.743 0 0 0 0 6.652 4.608 4.608 0 0 0 6.574 0l11.44-11.577v9.197c0 2.597 2.082 4.704 4.65 4.704 2.566 0 4.648-2.107 4.648-4.704V4.96c0-2.598-2.082-4.704-4.649-4.704H4.913z"/>
        <path id="bw" d="M4.913.256C2.346.256.265 2.362.265 4.96s2.08 4.704 4.648 4.704h9.453L2.868 21.299a4.743 4.743 0 0 0 0 6.652 4.608 4.608 0 0 0 6.574 0l11.44-11.577v9.197c0 2.597 2.082 4.704 4.65 4.704 2.566 0 4.648-2.107 4.648-4.704V4.96c0-2.598-2.082-4.704-4.649-4.704H4.913z"/>
        <path id="by" d="M4.913.256C2.346.256.265 2.362.265 4.96s2.08 4.704 4.648 4.704h9.453L2.868 21.299a4.743 4.743 0 0 0 0 6.652 4.608 4.608 0 0 0 6.574 0l11.44-11.577v9.197c0 2.597 2.082 4.704 4.65 4.704 2.566 0 4.648-2.107 4.648-4.704V4.96c0-2.598-2.082-4.704-4.649-4.704H4.913z"/>
        <path id="bA" d="M4.913.256C2.346.256.265 2.362.265 4.96s2.08 4.704 4.648 4.704h9.453L2.868 21.299a4.743 4.743 0 0 0 0 6.652 4.608 4.608 0 0 0 6.574 0l11.44-11.577v9.197c0 2.597 2.082 4.704 4.65 4.704 2.566 0 4.648-2.107 4.648-4.704V4.96c0-2.598-2.082-4.704-4.649-4.704H4.913z"/>
        <path id="bC" d="M4.913.256C2.346.256.265 2.362.265 4.96s2.08 4.704 4.648 4.704h9.453L2.868 21.299a4.743 4.743 0 0 0 0 6.652 4.608 4.608 0 0 0 6.574 0l11.44-11.577v9.197c0 2.597 2.082 4.704 4.65 4.704 2.566 0 4.648-2.107 4.648-4.704V4.96c0-2.598-2.082-4.704-4.649-4.704H4.913z"/>
        <path id="bE" d="M4.913.256C2.346.256.265 2.362.265 4.96s2.08 4.704 4.648 4.704h9.453L2.868 21.299a4.743 4.743 0 0 0 0 6.652 4.608 4.608 0 0 0 6.574 0l11.44-11.577v9.197c0 2.597 2.082 4.704 4.65 4.704 2.566 0 4.648-2.107 4.648-4.704V4.96c0-2.598-2.082-4.704-4.649-4.704H4.913z"/>
        <path id="bG" d="M4.913.256C2.346.256.265 2.362.265 4.96s2.08 4.704 4.648 4.704h9.453L2.868 21.299a4.743 4.743 0 0 0 0 6.652 4.608 4.608 0 0 0 6.574 0l11.44-11.577v9.197c0 2.597 2.082 4.704 4.65 4.704 2.566 0 4.648-2.107 4.648-4.704V4.96c0-2.598-2.082-4.704-4.649-4.704H4.913z"/>
        <path id="bI" d="M4.913.256C2.346.256.265 2.362.265 4.96s2.08 4.704 4.648 4.704h9.453L2.868 21.299a4.743 4.743 0 0 0 0 6.652 4.608 4.608 0 0 0 6.574 0l11.44-11.577v9.197c0 2.597 2.082 4.704 4.65 4.704 2.566 0 4.648-2.107 4.648-4.704V4.96c0-2.598-2.082-4.704-4.649-4.704H4.913z"/>
        <path id="bK" d="M4.913.256C2.346.256.265 2.362.265 4.96s2.08 4.704 4.648 4.704h9.453L2.868 21.299a4.743 4.743 0 0 0 0 6.652 4.608 4.608 0 0 0 6.574 0l11.44-11.577v9.197c0 2.597 2.082 4.704 4.65 4.704 2.566 0 4.648-2.107 4.648-4.704V4.96c0-2.598-2.082-4.704-4.649-4.704H4.913z"/>
        <path id="bM" d="M4.913.256C2.346.256.265 2.362.265 4.96s2.08 4.704 4.648 4.704h9.453L2.868 21.299a4.743 4.743 0 0 0 0 6.652 4.608 4.608 0 0 0 6.574 0l11.44-11.577v9.197c0 2.597 2.082 4.704 4.65 4.704 2.566 0 4.648-2.107 4.648-4.704V4.96c0-2.598-2.082-4.704-4.649-4.704H4.913z"/>
        <path id="bO" d="M4.913.256C2.346.256.265 2.362.265 4.96s2.08 4.704 4.648 4.704h9.453L2.868 21.299a4.743 4.743 0 0 0 0 6.652 4.608 4.608 0 0 0 6.574 0l11.44-11.577v9.197c0 2.597 2.082 4.704 4.65 4.704 2.566 0 4.648-2.107 4.648-4.704V4.96c0-2.598-2.082-4.704-4.649-4.704H4.913z"/>
        <path id="bQ" d="M4.913.256C2.346.256.265 2.362.265 4.96s2.08 4.704 4.648 4.704h9.453L2.868 21.299a4.743 4.743 0 0 0 0 6.652 4.608 4.608 0 0 0 6.574 0l11.44-11.577v9.197c0 2.597 2.082 4.704 4.65 4.704 2.566 0 4.648-2.107 4.648-4.704V4.96c0-2.598-2.082-4.704-4.649-4.704H4.913z"/>
        <path id="bS" d="M4.913.256C2.346.256.265 2.362.265 4.96s2.08 4.704 4.648 4.704h9.453L2.868 21.299a4.743 4.743 0 0 0 0 6.652 4.608 4.608 0 0 0 6.574 0l11.44-11.577v9.197c0 2.597 2.082 4.704 4.65 4.704 2.566 0 4.648-2.107 4.648-4.704V4.96c0-2.598-2.082-4.704-4.649-4.704H4.913z"/>
        <path id="bU" d="M4.913.256C2.346.256.265 2.362.265 4.96s2.08 4.704 4.648 4.704h9.453L2.868 21.299a4.743 4.743 0 0 0 0 6.652 4.608 4.608 0 0 0 6.574 0l11.44-11.577v9.197c0 2.597 2.082 4.704 4.65 4.704 2.566 0 4.648-2.107 4.648-4.704V4.96c0-2.598-2.082-4.704-4.649-4.704H4.913z"/>
        <path id="bW" d="M4.913.256C2.346.256.265 2.362.265 4.96s2.08 4.704 4.648 4.704h9.453L2.868 21.299a4.743 4.743 0 0 0 0 6.652 4.608 4.608 0 0 0 6.574 0l11.44-11.577v9.197c0 2.597 2.082 4.704 4.65 4.704 2.566 0 4.648-2.107 4.648-4.704V4.96c0-2.598-2.082-4.704-4.649-4.704H4.913z"/>
        <path id="bY" d="M4.913.256C2.346.256.265 2.362.265 4.96s2.08 4.704 4.648 4.704h9.453L2.868 21.299a4.743 4.743 0 0 0 0 6.652 4.608 4.608 0 0 0 6.574 0l11.44-11.577v9.197c0 2.597 2.082 4.704 4.65 4.704 2.566 0 4.648-2.107 4.648-4.704V4.96c0-2.598-2.082-4.704-4.649-4.704H4.913z"/>
        <path id="ca" d="M4.913.256C2.346.256.265 2.362.265 4.96s2.08 4.704 4.648 4.704h9.453L2.868 21.299a4.743 4.743 0 0 0 0 6.652 4.608 4.608 0 0 0 6.574 0l11.44-11.577v9.197c0 2.597 2.082 4.704 4.65 4.704 2.566 0 4.648-2.107 4.648-4.704V4.96c0-2.598-2.082-4.704-4.649-4.704H4.913z"/>
        <path id="cc" d="M4.913.256C2.346.256.265 2.362.265 4.96s2.08 4.704 4.648 4.704h9.453L2.868 21.299a4.743 4.743 0 0 0 0 6.652 4.608 4.608 0 0 0 6.574 0l11.44-11.577v9.197c0 2.597 2.082 4.704 4.65 4.704 2.566 0 4.648-2.107 4.648-4.704V4.96c0-2.598-2.082-4.704-4.649-4.704H4.913z"/>
        <path id="ce" d="M4.913.256C2.346.256.265 2.362.265 4.96s2.08 4.704 4.648 4.704h9.453L2.868 21.299a4.743 4.743 0 0 0 0 6.652 4.608 4.608 0 0 0 6.574 0l11.44-11.577v9.197c0 2.597 2.082 4.704 4.65 4.704 2.566 0 4.648-2.107 4.648-4.704V4.96c0-2.598-2.082-4.704-4.649-4.704H4.913z"/>
        <path id="cg" d="M4.913.256C2.346.256.265 2.362.265 4.96s2.08 4.704 4.648 4.704h9.453L2.868 21.299a4.743 4.743 0 0 0 0 6.652 4.608 4.608 0 0 0 6.574 0l11.44-11.577v9.197c0 2.597 2.082 4.704 4.65 4.704 2.566 0 4.648-2.107 4.648-4.704V4.96c0-2.598-2.082-4.704-4.649-4.704H4.913z"/>
        <path id="ci" d="M4.913.256C2.346.256.265 2.362.265 4.96s2.08 4.704 4.648 4.704h9.453L2.868 21.299a4.743 4.743 0 0 0 0 6.652 4.608 4.608 0 0 0 6.574 0l11.44-11.577v9.197c0 2.597 2.082 4.704 4.65 4.704 2.566 0 4.648-2.107 4.648-4.704V4.96c0-2.598-2.082-4.704-4.649-4.704H4.913z"/>
        <path id="ck" d="M4.913.256C2.346.256.265 2.362.265 4.96s2.08 4.704 4.648 4.704h9.453L2.868 21.299a4.743 4.743 0 0 0 0 6.652 4.608 4.608 0 0 0 6.574 0l11.44-11.577v9.197c0 2.597 2.082 4.704 4.65 4.704 2.566 0 4.648-2.107 4.648-4.704V4.96c0-2.598-2.082-4.704-4.649-4.704H4.913z"/>
        <path id="cm" d="M4.913.256C2.346.256.265 2.362.265 4.96s2.08 4.704 4.648 4.704h9.453L2.868 21.299a4.743 4.743 0 0 0 0 6.652 4.608 4.608 0 0 0 6.574 0l11.44-11.577v9.197c0 2.597 2.082 4.704 4.65 4.704 2.566 0 4.648-2.107 4.648-4.704V4.96c0-2.598-2.082-4.704-4.649-4.704H4.913z"/>
        <path id="co" d="M4.913.256C2.346.256.265 2.362.265 4.96s2.08 4.704 4.648 4.704h9.453L2.868 21.299a4.743 4.743 0 0 0 0 6.652 4.608 4.608 0 0 0 6.574 0l11.44-11.577v9.197c0 2.597 2.082 4.704 4.65 4.704 2.566 0 4.648-2.107 4.648-4.704V4.96c0-2.598-2.082-4.704-4.649-4.704H4.913z"/>
        <path id="cq" d="M4.913.256C2.346.256.265 2.362.265 4.96s2.08 4.704 4.648 4.704h9.453L2.868 21.299a4.743 4.743 0 0 0 0 6.652 4.608 4.608 0 0 0 6.574 0l11.44-11.577v9.197c0 2.597 2.082 4.704 4.65 4.704 2.566 0 4.648-2.107 4.648-4.704V4.96c0-2.598-2.082-4.704-4.649-4.704H4.913z"/>
        <path id="cs" d="M4.913.256C2.346.256.265 2.362.265 4.96s2.08 4.704 4.648 4.704h9.453L2.868 21.299a4.743 4.743 0 0 0 0 6.652 4.608 4.608 0 0 0 6.574 0l11.44-11.577v9.197c0 2.597 2.082 4.704 4.65 4.704 2.566 0 4.648-2.107 4.648-4.704V4.96c0-2.598-2.082-4.704-4.649-4.704H4.913z"/>
        <path id="cu" d="M4.913.256C2.346.256.265 2.362.265 4.96s2.08 4.704 4.648 4.704h9.453L2.868 21.299a4.743 4.743 0 0 0 0 6.652 4.608 4.608 0 0 0 6.574 0l11.44-11.577v9.197c0 2.597 2.082 4.704 4.65 4.704 2.566 0 4.648-2.107 4.648-4.704V4.96c0-2.598-2.082-4.704-4.649-4.704H4.913z"/>
        <path id="cw" d="M4.913.256C2.346.256.265 2.362.265 4.96s2.08 4.704 4.648 4.704h9.453L2.868 21.299a4.743 4.743 0 0 0 0 6.652 4.608 4.608 0 0 0 6.574 0l11.44-11.577v9.197c0 2.597 2.082 4.704 4.65 4.704 2.566 0 4.648-2.107 4.648-4.704V4.96c0-2.598-2.082-4.704-4.649-4.704H4.913z"/>
        <path id="cy" d="M4.913.256C2.346.256.265 2.362.265 4.96s2.08 4.704 4.648 4.704h9.453L2.868 21.299a4.743 4.743 0 0 0 0 6.652 4.608 4.608 0 0 0 6.574 0l11.44-11.577v9.197c0 2.597 2.082 4.704 4.65 4.704 2.566 0 4.648-2.107 4.648-4.704V4.96c0-2.598-2.082-4.704-4.649-4.704H4.913z"/>
        <path id="cA" d="M4.913.256C2.346.256.265 2.362.265 4.96s2.08 4.704 4.648 4.704h9.453L2.868 21.299a4.743 4.743 0 0 0 0 6.652 4.608 4.608 0 0 0 6.574 0l11.44-11.577v9.197c0 2.597 2.082 4.704 4.65 4.704 2.566 0 4.648-2.107 4.648-4.704V4.96c0-2.598-2.082-4.704-4.649-4.704H4.913z"/>
        <path id="cC" d="M4.913.256C2.346.256.265 2.362.265 4.96s2.08 4.704 4.648 4.704h9.453L2.868 21.299a4.743 4.743 0 0 0 0 6.652 4.608 4.608 0 0 0 6.574 0l11.44-11.577v9.197c0 2.597 2.082 4.704 4.65 4.704 2.566 0 4.648-2.107 4.648-4.704V4.96c0-2.598-2.082-4.704-4.649-4.704H4.913z"/>
        <path id="cE" d="M4.913.256C2.346.256.265 2.362.265 4.96s2.08 4.704 4.648 4.704h9.453L2.868 21.299a4.743 4.743 0 0 0 0 6.652 4.608 4.608 0 0 0 6.574 0l11.44-11.577v9.197c0 2.597 2.082 4.704 4.65 4.704 2.566 0 4.648-2.107 4.648-4.704V4.96c0-2.598-2.082-4.704-4.649-4.704H4.913z"/>
        <path id="cG" d="M4.913.256C2.346.256.265 2.362.265 4.96s2.08 4.704 4.648 4.704h9.453L2.868 21.299a4.743 4.743 0 0 0 0 6.652 4.608 4.608 0 0 0 6.574 0l11.44-11.577v9.197c0 2.597 2.082 4.704 4.65 4.704 2.566 0 4.648-2.107 4.648-4.704V4.96c0-2.598-2.082-4.704-4.649-4.704H4.913z"/>
        <path id="cI" d="M4.913.256C2.346.256.265 2.362.265 4.96s2.08 4.704 4.648 4.704h9.453L2.868 21.299a4.743 4.743 0 0 0 0 6.652 4.608 4.608 0 0 0 6.574 0l11.44-11.577v9.197c0 2.597 2.082 4.704 4.65 4.704 2.566 0 4.648-2.107 4.648-4.704V4.96c0-2.598-2.082-4.704-4.649-4.704H4.913z"/>
        <path id="cK" d="M4.913.256C2.346.256.265 2.362.265 4.96s2.08 4.704 4.648 4.704h9.453L2.868 21.299a4.743 4.743 0 0 0 0 6.652 4.608 4.608 0 0 0 6.574 0l11.44-11.577v9.197c0 2.597 2.082 4.704 4.65 4.704 2.566 0 4.648-2.107 4.648-4.704V4.96c0-2.598-2.082-4.704-4.649-4.704H4.913z"/>
        <path id="cM" d="M4.913.256C2.346.256.265 2.362.265 4.96s2.08 4.704 4.648 4.704h9.453L2.868 21.299a4.743 4.743 0 0 0 0 6.652 4.608 4.608 0 0 0 6.574 0l11.44-11.577v9.197c0 2.597 2.082 4.704 4.65 4.704 2.566 0 4.648-2.107 4.648-4.704V4.96c0-2.598-2.082-4.704-4.649-4.704H4.913z"/>
        <path id="cO" d="M4.913.256C2.346.256.265 2.362.265 4.96s2.08 4.704 4.648 4.704h9.453L2.868 21.299a4.743 4.743 0 0 0 0 6.652 4.608 4.608 0 0 0 6.574 0l11.44-11.577v9.197c0 2.597 2.082 4.704 4.65 4.704 2.566 0 4.648-2.107 4.648-4.704V4.96c0-2.598-2.082-4.704-4.649-4.704H4.913z"/>
        <path id="cQ" d="M4.913.256C2.346.256.265 2.362.265 4.96s2.08 4.704 4.648 4.704h9.453L2.868 21.299a4.743 4.743 0 0 0 0 6.652 4.608 4.608 0 0 0 6.574 0l11.44-11.577v9.197c0 2.597 2.082 4.704 4.65 4.704 2.566 0 4.648-2.107 4.648-4.704V4.96c0-2.598-2.082-4.704-4.649-4.704H4.913z"/>
        <path id="cS" d="M4.913.256C2.346.256.265 2.362.265 4.96s2.08 4.704 4.648 4.704h9.453L2.868 21.299a4.743 4.743 0 0 0 0 6.652 4.608 4.608 0 0 0 6.574 0l11.44-11.577v9.197c0 2.597 2.082 4.704 4.65 4.704 2.566 0 4.648-2.107 4.648-4.704V4.96c0-2.598-2.082-4.704-4.649-4.704H4.913z"/>
        <path id="cU" d="M4.913.256C2.346.256.265 2.362.265 4.96s2.08 4.704 4.648 4.704h9.453L2.868 21.299a4.743 4.743 0 0 0 0 6.652 4.608 4.608 0 0 0 6.574 0l11.44-11.577v9.197c0 2.597 2.082 4.704 4.65 4.704 2.566 0 4.648-2.107 4.648-4.704V4.96c0-2.598-2.082-4.704-4.649-4.704H4.913z"/>
        <path id="cW" d="M4.913.256C2.346.256.265 2.362.265 4.96s2.08 4.704 4.648 4.704h9.453L2.868 21.299a4.743 4.743 0 0 0 0 6.652 4.608 4.608 0 0 0 6.574 0l11.44-11.577v9.197c0 2.597 2.082 4.704 4.65 4.704 2.566 0 4.648-2.107 4.648-4.704V4.96c0-2.598-2.082-4.704-4.649-4.704H4.913z"/>
        <path id="cY" d="M4.913.256C2.346.256.265 2.362.265 4.96s2.08 4.704 4.648 4.704h9.453L2.868 21.299a4.743 4.743 0 0 0 0 6.652 4.608 4.608 0 0 0 6.574 0l11.44-11.577v9.197c0 2.597 2.082 4.704 4.65 4.704 2.566 0 4.648-2.107 4.648-4.704V4.96c0-2.598-2.082-4.704-4.649-4.704H4.913z"/>
        <path id="da" d="M4.913.256C2.346.256.265 2.362.265 4.96s2.08 4.704 4.648 4.704h9.453L2.868 21.299a4.743 4.743 0 0 0 0 6.652 4.608 4.608 0 0 0 6.574 0l11.44-11.577v9.197c0 2.597 2.082 4.704 4.65 4.704 2.566 0 4.648-2.107 4.648-4.704V4.96c0-2.598-2.082-4.704-4.649-4.704H4.913z"/>
        <path id="dc" d="M4.913.256C2.346.256.265 2.362.265 4.96s2.08 4.704 4.648 4.704h9.453L2.868 21.299a4.743 4.743 0 0 0 0 6.652 4.608 4.608 0 0 0 6.574 0l11.44-11.577v9.197c0 2.597 2.082 4.704 4.65 4.704 2.566 0 4.648-2.107 4.648-4.704V4.96c0-2.598-2.082-4.704-4.649-4.704H4.913z"/>
        <path id="de" d="M4.913.256C2.346.256.265 2.362.265 4.96s2.08 4.704 4.648 4.704h9.453L2.868 21.299a4.743 4.743 0 0 0 0 6.652 4.608 4.608 0 0 0 6.574 0l11.44-11.577v9.197c0 2.597 2.082 4.704 4.65 4.704 2.566 0 4.648-2.107 4.648-4.704V4.96c0-2.598-2.082-4.704-4.649-4.704H4.913z"/>
        <path id="dg" d="M4.913.256C2.346.256.265 2.362.265 4.96s2.08 4.704 4.648 4.704h9.453L2.868 21.299a4.743 4.743 0 0 0 0 6.652 4.608 4.608 0 0 0 6.574 0l11.44-11.577v9.197c0 2.597 2.082 4.704 4.65 4.704 2.566 0 4.648-2.107 4.648-4.704V4.96c0-2.598-2.082-4.704-4.649-4.704H4.913z"/>
        <path id="di" d="M4.913.256C2.346.256.265 2.362.265 4.96s2.08 4.704 4.648 4.704h9.453L2.868 21.299a4.743 4.743 0 0 0 0 6.652 4.608 4.608 0 0 0 6.574 0l11.44-11.577v9.197c0 2.597 2.082 4.704 4.65 4.704 2.566 0 4.648-2.107 4.648-4.704V4.96c0-2.598-2.082-4.704-4.649-4.704H4.913z"/>
        <path id="dk" d="M4.913.256C2.346.256.265 2.362.265 4.96s2.08 4.704 4.648 4.704h9.453L2.868 21.299a4.743 4.743 0 0 0 0 6.652 4.608 4.608 0 0 0 6.574 0l11.44-11.577v9.197c0 2.597 2.082 4.704 4.65 4.704 2.566 0 4.648-2.107 4.648-4.704V4.96c0-2.598-2.082-4.704-4.649-4.704H4.913z"/>
        <path id="dm" d="M4.913.256C2.346.256.265 2.362.265 4.96s2.08 4.704 4.648 4.704h9.453L2.868 21.299a4.743 4.743 0 0 0 0 6.652 4.608 4.608 0 0 0 6.574 0l11.44-11.577v9.197c0 2.597 2.082 4.704 4.65 4.704 2.566 0 4.648-2.107 4.648-4.704V4.96c0-2.598-2.082-4.704-4.649-4.704H4.913z"/>
        <path id="do" d="M4.913.256C2.346.256.265 2.362.265 4.96s2.08 4.704 4.648 4.704h9.453L2.868 21.299a4.743 4.743 0 0 0 0 6.652 4.608 4.608 0 0 0 6.574 0l11.44-11.577v9.197c0 2.597 2.082 4.704 4.65 4.704 2.566 0 4.648-2.107 4.648-4.704V4.96c0-2.598-2.082-4.704-4.649-4.704H4.913z"/>
        <path id="dq" d="M4.913.256C2.346.256.265 2.362.265 4.96s2.08 4.704 4.648 4.704h9.453L2.868 21.299a4.743 4.743 0 0 0 0 6.652 4.608 4.608 0 0 0 6.574 0l11.44-11.577v9.197c0 2.597 2.082 4.704 4.65 4.704 2.566 0 4.648-2.107 4.648-4.704V4.96c0-2.598-2.082-4.704-4.649-4.704H4.913z"/>
        <path id="ds" d="M4.913.256C2.346.256.265 2.362.265 4.96s2.08 4.704 4.648 4.704h9.453L2.868 21.299a4.743 4.743 0 0 0 0 6.652 4.608 4.608 0 0 0 6.574 0l11.44-11.577v9.197c0 2.597 2.082 4.704 4.65 4.704 2.566 0 4.648-2.107 4.648-4.704V4.96c0-2.598-2.082-4.704-4.649-4.704H4.913z"/>
        <path id="du" d="M4.913.256C2.346.256.265 2.362.265 4.96s2.08 4.704 4.648 4.704h9.453L2.868 21.299a4.743 4.743 0 0 0 0 6.652 4.608 4.608 0 0 0 6.574 0l11.44-11.577v9.197c0 2.597 2.082 4.704 4.65 4.704 2.566 0 4.648-2.107 4.648-4.704V4.96c0-2.598-2.082-4.704-4.649-4.704H4.913z"/>
        <path id="dw" d="M4.913.256C2.346.256.265 2.362.265 4.96s2.08 4.704 4.648 4.704h9.453L2.868 21.299a4.743 4.743 0 0 0 0 6.652 4.608 4.608 0 0 0 6.574 0l11.44-11.577v9.197c0 2.597 2.082 4.704 4.65 4.704 2.566 0 4.648-2.107 4.648-4.704V4.96c0-2.598-2.082-4.704-4.649-4.704H4.913z"/>
        <path id="dy" d="M4.913.256C2.346.256.265 2.362.265 4.96s2.08 4.704 4.648 4.704h9.453L2.868 21.299a4.743 4.743 0 0 0 0 6.652 4.608 4.608 0 0 0 6.574 0l11.44-11.577v9.197c0 2.597 2.082 4.704 4.65 4.704 2.566 0 4.648-2.107 4.648-4.704V4.96c0-2.598-2.082-4.704-4.649-4.704H4.913z"/>
        <path id="dA" d="M4.913.256C2.346.256.265 2.362.265 4.96s2.08 4.704 4.648 4.704h9.453L2.868 21.299a4.743 4.743 0 0 0 0 6.652 4.608 4.608 0 0 0 6.574 0l11.44-11.577v9.197c0 2.597 2.082 4.704 4.65 4.704 2.566 0 4.648-2.107 4.648-4.704V4.96c0-2.598-2.082-4.704-4.649-4.704H4.913z"/>
        <path id="dC" d="M4.913.256C2.346.256.265 2.362.265 4.96s2.08 4.704 4.648 4.704h9.453L2.868 21.299a4.743 4.743 0 0 0 0 6.652 4.608 4.608 0 0 0 6.574 0l11.44-11.577v9.197c0 2.597 2.082 4.704 4.65 4.704 2.566 0 4.648-2.107 4.648-4.704V4.96c0-2.598-2.082-4.704-4.649-4.704H4.913z"/>
        <path id="dE" d="M4.913.256C2.346.256.265 2.362.265 4.96s2.08 4.704 4.648 4.704h9.453L2.868 21.299a4.743 4.743 0 0 0 0 6.652 4.608 4.608 0 0 0 6.574 0l11.44-11.577v9.197c0 2.597 2.082 4.704 4.65 4.704 2.566 0 4.648-2.107 4.648-4.704V4.96c0-2.598-2.082-4.704-4.649-4.704H4.913z"/>
        <path id="dG" d="M4.913.256C2.346.256.265 2.362.265 4.96s2.08 4.704 4.648 4.704h9.453L2.868 21.299a4.743 4.743 0 0 0 0 6.652 4.608 4.608 0 0 0 6.574 0l11.44-11.577v9.197c0 2.597 2.082 4.704 4.65 4.704 2.566 0 4.648-2.107 4.648-4.704V4.96c0-2.598-2.082-4.704-4.649-4.704H4.913z"/>
        <path id="dI" d="M4.913.256C2.346.256.265 2.362.265 4.96s2.08 4.704 4.648 4.704h9.453L2.868 21.299a4.743 4.743 0 0 0 0 6.652 4.608 4.608 0 0 0 6.574 0l11.44-11.577v9.197c0 2.597 2.082 4.704 4.65 4.704 2.566 0 4.648-2.107 4.648-4.704V4.96c0-2.598-2.082-4.704-4.649-4.704H4.913z"/>
        <path id="dK" d="M4.913.256C2.346.256.265 2.362.265 4.96s2.08 4.704 4.648 4.704h9.453L2.868 21.299a4.743 4.743 0 0 0 0 6.652 4.608 4.608 0 0 0 6.574 0l11.44-11.577v9.197c0 2.597 2.082 4.704 4.65 4.704 2.566 0 4.648-2.107 4.648-4.704V4.96c0-2.598-2.082-4.704-4.649-4.704H4.913z"/>
        <path id="dM" d="M4.913.256C2.346.256.265 2.362.265 4.96s2.08 4.704 4.648 4.704h9.453L2.868 21.299a4.743 4.743 0 0 0 0 6.652 4.608 4.608 0 0 0 6.574 0l11.44-11.577v9.197c0 2.597 2.082 4.704 4.65 4.704 2.566 0 4.648-2.107 4.648-4.704V4.96c0-2.598-2.082-4.704-4.649-4.704H4.913z"/>
        <path id="dO" d="M4.913.256C2.346.256.265 2.362.265 4.96s2.08 4.704 4.648 4.704h9.453L2.868 21.299a4.743 4.743 0 0 0 0 6.652 4.608 4.608 0 0 0 6.574 0l11.44-11.577v9.197c0 2.597 2.082 4.704 4.65 4.704 2.566 0 4.648-2.107 4.648-4.704V4.96c0-2.598-2.082-4.704-4.649-4.704H4.913z"/>
        <path id="dQ" d="M4.913.256C2.346.256.265 2.362.265 4.96s2.08 4.704 4.648 4.704h9.453L2.868 21.299a4.743 4.743 0 0 0 0 6.652 4.608 4.608 0 0 0 6.574 0l11.44-11.577v9.197c0 2.597 2.082 4.704 4.65 4.704 2.566 0 4.648-2.107 4.648-4.704V4.96c0-2.598-2.082-4.704-4.649-4.704H4.913z"/>
        <path id="dS" d="M4.913.256C2.346.256.265 2.362.265 4.96s2.08 4.704 4.648 4.704h9.453L2.868 21.299a4.743 4.743 0 0 0 0 6.652 4.608 4.608 0 0 0 6.574 0l11.44-11.577v9.197c0 2.597 2.082 4.704 4.65 4.704 2.566 0 4.648-2.107 4.648-4.704V4.96c0-2.598-2.082-4.704-4.649-4.704H4.913z"/>
        <path id="dU" d="M4.913.256C2.346.256.265 2.362.265 4.96s2.08 4.704 4.648 4.704h9.453L2.868 21.299a4.743 4.743 0 0 0 0 6.652 4.608 4.608 0 0 0 6.574 0l11.44-11.577v9.197c0 2.597 2.082 4.704 4.65 4.704 2.566 0 4.648-2.107 4.648-4.704V4.96c0-2.598-2.082-4.704-4.649-4.704H4.913z"/>
        <path id="dW" d="M4.913.256C2.346.256.265 2.362.265 4.96s2.08 4.704 4.648 4.704h9.453L2.868 21.299a4.743 4.743 0 0 0 0 6.652 4.608 4.608 0 0 0 6.574 0l11.44-11.577v9.197c0 2.597 2.082 4.704 4.65 4.704 2.566 0 4.648-2.107 4.648-4.704V4.96c0-2.598-2.082-4.704-4.649-4.704H4.913z"/>
        <path id="dY" d="M4.913.256C2.346.256.265 2.362.265 4.96s2.08 4.704 4.648 4.704h9.453L2.868 21.299a4.743 4.743 0 0 0 0 6.652 4.608 4.608 0 0 0 6.574 0l11.44-11.577v9.197c0 2.597 2.082 4.704 4.65 4.704 2.566 0 4.648-2.107 4.648-4.704V4.96c0-2.598-2.082-4.704-4.649-4.704H4.913z"/>
        <path id="ea" d="M4.913.256C2.346.256.265 2.362.265 4.96s2.08 4.704 4.648 4.704h9.453L2.868 21.299a4.743 4.743 0 0 0 0 6.652 4.608 4.608 0 0 0 6.574 0l11.44-11.577v9.197c0 2.597 2.082 4.704 4.65 4.704 2.566 0 4.648-2.107 4.648-4.704V4.96c0-2.598-2.082-4.704-4.649-4.704H4.913z"/>
        <path id="ec" d="M4.913.256C2.346.256.265 2.362.265 4.96s2.08 4.704 4.648 4.704h9.453L2.868 21.299a4.743 4.743 0 0 0 0 6.652 4.608 4.608 0 0 0 6.574 0l11.44-11.577v9.197c0 2.597 2.082 4.704 4.65 4.704 2.566 0 4.648-2.107 4.648-4.704V4.96c0-2.598-2.082-4.704-4.649-4.704H4.913z"/>
        <path id="ee" d="M4.913.256C2.346.256.265 2.362.265 4.96s2.08 4.704 4.648 4.704h9.453L2.868 21.299a4.743 4.743 0 0 0 0 6.652 4.608 4.608 0 0 0 6.574 0l11.44-11.577v9.197c0 2.597 2.082 4.704 4.65 4.704 2.566 0 4.648-2.107 4.648-4.704V4.96c0-2.598-2.082-4.704-4.649-4.704H4.913z"/>
        <path id="eg" d="M4.913.256C2.346.256.265 2.362.265 4.96s2.08 4.704 4.648 4.704h9.453L2.868 21.299a4.743 4.743 0 0 0 0 6.652 4.608 4.608 0 0 0 6.574 0l11.44-11.577v9.197c0 2.597 2.082 4.704 4.65 4.704 2.566 0 4.648-2.107 4.648-4.704V4.96c0-2.598-2.082-4.704-4.649-4.704H4.913z"/>
        <path id="ei" d="M4.913.256C2.346.256.265 2.362.265 4.96s2.08 4.704 4.648 4.704h9.453L2.868 21.299a4.743 4.743 0 0 0 0 6.652 4.608 4.608 0 0 0 6.574 0l11.44-11.577v9.197c0 2.597 2.082 4.704 4.65 4.704 2.566 0 4.648-2.107 4.648-4.704V4.96c0-2.598-2.082-4.704-4.649-4.704H4.913z"/>
        <path id="ek" d="M4.913.256C2.346.256.265 2.362.265 4.96s2.08 4.704 4.648 4.704h9.453L2.868 21.299a4.743 4.743 0 0 0 0 6.652 4.608 4.608 0 0 0 6.574 0l11.44-11.577v9.197c0 2.597 2.082 4.704 4.65 4.704 2.566 0 4.648-2.107 4.648-4.704V4.96c0-2.598-2.082-4.704-4.649-4.704H4.913z"/>
        <path id="em" d="M4.913.256C2.346.256.265 2.362.265 4.96s2.08 4.704 4.648 4.704h9.453L2.868 21.299a4.743 4.743 0 0 0 0 6.652 4.608 4.608 0 0 0 6.574 0l11.44-11.577v9.197c0 2.597 2.082 4.704 4.65 4.704 2.566 0 4.648-2.107 4.648-4.704V4.96c0-2.598-2.082-4.704-4.649-4.704H4.913z"/>
        <path id="eo" d="M4.913.256C2.346.256.265 2.362.265 4.96s2.08 4.704 4.648 4.704h9.453L2.868 21.299a4.743 4.743 0 0 0 0 6.652 4.608 4.608 0 0 0 6.574 0l11.44-11.577v9.197c0 2.597 2.082 4.704 4.65 4.704 2.566 0 4.648-2.107 4.648-4.704V4.96c0-2.598-2.082-4.704-4.649-4.704H4.913z"/>
    </defs>
    <g fill="none" fill-rule="evenodd">
        <g transform="translate(126.418 2.424)">
            <mask id="b" fill="#fff">
                <use xlink:href="#a"/>
            </mask>
            <path fill="#4FFF96" d="M.265 25.316l4.9 4.959h-4.9z" mask="url(#b)"/>
        </g>
        <g transform="translate(126.418 2.424)">
            <mask id="d" fill="#fff">
                <use xlink:href="#c"/>
            </mask>
            <path fill="#4FFF96" d="M.265 24.981l5.23 5.294h-.33l-4.9-4.959z" mask="url(#d)"/>
        </g>
        <g transform="translate(126.418 2.424)">
            <mask id="f" fill="#fff">
                <use xlink:href="#e"/>
            </mask>
            <path fill="#4EFF97" d="M.265 24.646l5.562 5.629h-.332L.265 24.98z" mask="url(#f)"/>
        </g>
        <g transform="translate(126.418 2.424)">
            <mask id="h" fill="#fff">
                <use xlink:href="#g"/>
            </mask>
            <path fill="#4DFF98" d="M.265 24.311l5.893 5.964h-.331L.265 24.646z" mask="url(#h)"/>
        </g>
        <g transform="translate(126.418 2.424)">
            <mask id="j" fill="#fff">
                <use xlink:href="#i"/>
            </mask>
            <path fill="#4CFF99" d="M.265 23.976l6.224 6.299h-.331L.265 24.31z" mask="url(#j)"/>
        </g>
        <g transform="translate(126.418 2.424)">
            <mask id="l" fill="#fff">
                <use xlink:href="#k"/>
            </mask>
            <path fill="#4BFE99" d="M.265 23.64l6.555 6.635H6.49L.265 23.976z" mask="url(#l)"/>
        </g>
        <g transform="translate(126.418 2.424)">
            <mask id="n" fill="#fff">
                <use xlink:href="#m"/>
            </mask>
            <path fill="#4AFE9A" d="M.265 23.306l6.886 6.968h-.33L.264 23.641z" mask="url(#n)"/>
        </g>
        <g transform="translate(126.418 2.424)">
            <mask id="p" fill="#fff">
                <use xlink:href="#o"/>
            </mask>
            <path fill="#49FE9B" d="M.265 22.97l7.218 7.305H7.15l-6.886-6.97z" mask="url(#p)"/>
        </g>
        <g transform="translate(126.418 2.424)">
            <mask id="r" fill="#fff">
                <use xlink:href="#q"/>
            </mask>
            <path fill="#48FE9C" d="M.265 22.635l7.549 7.64h-.331L.265 22.97z" mask="url(#r)"/>
        </g>
        <g transform="translate(126.418 2.424)">
            <mask id="t" fill="#fff">
                <use xlink:href="#s"/>
            </mask>
            <path fill="#47FE9D" d="M.265 22.3l7.88 7.975h-.331l-7.55-7.64z" mask="url(#t)"/>
        </g>
        <g transform="translate(126.418 2.424)">
            <mask id="v" fill="#fff">
                <use xlink:href="#u"/>
            </mask>
            <path fill="#46FE9E" d="M.265 21.965l8.211 8.31h-.33L.264 22.3z" mask="url(#v)"/>
        </g>
        <g transform="translate(126.418 2.424)">
            <mask id="x" fill="#fff">
                <use xlink:href="#w"/>
            </mask>
            <path fill="#45FE9F" d="M.265 21.63l8.543 8.645h-.332l-8.211-8.31z" mask="url(#x)"/>
        </g>
        <g transform="translate(126.418 2.424)">
            <mask id="z" fill="#fff">
                <use xlink:href="#y"/>
            </mask>
            <path fill="#44FD9F" d="M.265 21.295l8.874 8.98h-.331L.265 21.63z" mask="url(#z)"/>
        </g>
        <g transform="translate(126.418 2.424)">
            <mask id="B" fill="#fff">
                <use xlink:href="#A"/>
            </mask>
            <path fill="#42FDA1" d="M.265 20.624l9.536 9.65H9.47L.265 20.96z" mask="url(#B)"/>
        </g>
        <g transform="translate(126.418 2.424)">
            <mask id="D" fill="#fff">
                <use xlink:href="#C"/>
            </mask>
            <path fill="#41FDA2" d="M.265 20.29l9.867 9.985h-.331l-9.536-9.65z" mask="url(#D)"/>
        </g>
        <g transform="translate(126.418 2.424)">
            <mask id="F" fill="#fff">
                <use xlink:href="#E"/>
            </mask>
            <path fill="#40FDA3" d="M.265 19.954l10.198 10.32h-.33L.264 20.29z" mask="url(#F)"/>
        </g>
        <g transform="translate(126.418 2.424)">
            <mask id="H" fill="#fff">
                <use xlink:href="#G"/>
            </mask>
            <path fill="#3FFDA4" d="M.265 19.619l10.53 10.656h-.332L.265 19.955z" mask="url(#H)"/>
        </g>
        <g transform="translate(126.418 2.424)">
            <mask id="J" fill="#fff">
                <use xlink:href="#I"/>
            </mask>
            <path fill="#3EFDA5" d="M.265 19.284l10.86 10.99h-.33L.265 19.62z" mask="url(#J)"/>
        </g>
        <g transform="translate(126.418 2.424)">
            <mask id="L" fill="#fff">
                <use xlink:href="#K"/>
            </mask>
            <path fill="#3DFCA5" d="M.265 18.949l11.192 11.326h-.331L.265 19.284z" mask="url(#L)"/>
        </g>
        <g transform="translate(126.418 2.424)">
            <mask id="N" fill="#fff">
                <use xlink:href="#M"/>
            </mask>
            <path fill="#3CFCA6" d="M.265 18.614l11.523 11.66h-.33L.264 18.95z" mask="url(#N)"/>
        </g>
        <g transform="translate(126.418 2.424)">
            <mask id="P" fill="#fff">
                <use xlink:href="#O"/>
            </mask>
            <path fill="#3BFCA7" d="M.265 18.278l11.854 11.997h-.33L.264 18.614z" mask="url(#P)"/>
        </g>
        <g transform="translate(126.418 2.424)">
            <mask id="R" fill="#fff">
                <use xlink:href="#Q"/>
            </mask>
            <path fill="#3AFCA8" d="M.265 17.943L12.45 30.275h-.332L.265 18.278z" mask="url(#R)"/>
        </g>
        <g transform="translate(126.418 2.424)">
            <mask id="T" fill="#fff">
                <use xlink:href="#S"/>
            </mask>
            <path fill="#39FCA9" d="M.265 17.608l12.517 12.666h-.331L.265 17.944z" mask="url(#T)"/>
        </g>
        <g transform="translate(126.418 2.424)">
            <mask id="V" fill="#fff">
                <use xlink:href="#U"/>
            </mask>
            <path fill="#38FCAA" d="M.265 17.273l12.848 13.002h-.331L.265 17.608z" mask="url(#V)"/>
        </g>
        <g transform="translate(126.418 2.424)">
            <mask id="X" fill="#fff">
                <use xlink:href="#W"/>
            </mask>
            <path fill="#37FCAB" d="M.265 16.938l13.18 13.337h-.332L.265 17.273z" mask="url(#X)"/>
        </g>
        <g transform="translate(126.418 2.424)">
            <mask id="Z" fill="#fff">
                <use xlink:href="#Y"/>
            </mask>
            <path fill="#36FBAB" d="M.265 16.603l13.51 13.672h-.33L.264 16.938z" mask="url(#Z)"/>
        </g>
        <g transform="translate(126.418 2.424)">
            <mask id="ab" fill="#fff">
                <use xlink:href="#aa"/>
            </mask>
            <path fill="#35FBAC" d="M.265 16.268l13.842 14.007h-.331L.265 16.603z" mask="url(#ab)"/>
        </g>
        <g transform="translate(126.418 2.424)">
            <mask id="ad" fill="#fff">
                <use xlink:href="#ac"/>
            </mask>
            <path fill="#34FBAD" d="M.265 15.932l14.173 14.343h-.331L.265 16.268z" mask="url(#ad)"/>
        </g>
        <g transform="translate(126.418 2.424)">
            <mask id="af" fill="#fff">
                <use xlink:href="#ae"/>
            </mask>
            <path fill="#33FBAE" d="M.265 15.597l14.504 14.678h-.331L.265 15.933z" mask="url(#af)"/>
        </g>
        <g transform="translate(126.418 2.424)">
            <mask id="ah" fill="#fff">
                <use xlink:href="#ag"/>
            </mask>
            <path fill="#32FBAF" d="M.265 15.262L15.1 30.274h-.33L.264 15.597z" mask="url(#ah)"/>
        </g>
        <g transform="translate(126.418 2.424)">
            <mask id="aj" fill="#fff">
                <use xlink:href="#ai"/>
            </mask>
            <path fill="#31FBB0" d="M.265 14.927l15.167 15.348H15.1L.265 15.262z" mask="url(#aj)"/>
        </g>
        <g transform="translate(126.418 2.424)">
            <mask id="al" fill="#fff">
                <use xlink:href="#ak"/>
            </mask>
            <path fill="#30FBB1" d="M.265 14.592l15.498 15.683h-.331L.265 14.927z" mask="url(#al)"/>
        </g>
        <g transform="translate(126.418 2.424)">
            <mask id="an" fill="#fff">
                <use xlink:href="#am"/>
            </mask>
            <path fill="#2FFAB1" d="M.265 14.256l15.829 16.018h-.331L.265 14.592z" mask="url(#an)"/>
        </g>
        <g transform="translate(126.418 2.424)">
            <mask id="ap" fill="#fff">
                <use xlink:href="#ao"/>
            </mask>
            <path fill="#2EFAB2" d="M.265 13.921l16.16 16.354h-.331L.264 14.257z" mask="url(#ap)"/>
        </g>
        <g transform="translate(126.418 2.424)">
            <mask id="ar" fill="#fff">
                <use xlink:href="#aq"/>
            </mask>
            <path fill="#2DFAB3" d="M.265 13.586l16.492 16.689h-.332L.265 13.922z" mask="url(#ar)"/>
        </g>
        <g transform="translate(126.418 2.424)">
            <mask id="at" fill="#fff">
                <use xlink:href="#as"/>
            </mask>
            <path fill="#2CFAB4" d="M.265 13.251l16.823 17.024h-.331L.265 13.586z" mask="url(#at)"/>
        </g>
        <g transform="translate(126.418 2.424)">
            <mask id="av" fill="#fff">
                <use xlink:href="#au"/>
            </mask>
            <path fill="#2BFAB5" d="M.265 12.916l17.154 17.359h-.331L.265 13.25z" mask="url(#av)"/>
        </g>
        <g transform="translate(126.418 2.424)">
            <mask id="ax" fill="#fff">
                <use xlink:href="#aw"/>
            </mask>
            <path fill="#2AFAB6" d="M.265 12.58L17.75 30.276h-.331L.265 12.916z" mask="url(#ax)"/>
        </g>
        <g transform="translate(126.418 2.424)">
            <mask id="az" fill="#fff">
                <use xlink:href="#ay"/>
            </mask>
            <path fill="#29FAB7" d="M.265 12.246L18.08 30.275h-.331L.265 12.58z" mask="url(#az)"/>
        </g>
        <g transform="translate(126.418 2.424)">
            <mask id="aB" fill="#fff">
                <use xlink:href="#aA"/>
            </mask>
            <path fill="#28FAB8" d="M.265 11.91l18.147 18.364h-.33L.264 12.246z" mask="url(#aB)"/>
        </g>
        <g transform="translate(126.418 2.424)">
            <mask id="aD" fill="#fff">
                <use xlink:href="#aC"/>
            </mask>
            <path fill="#26F9B8" d="M.265 11.575l18.479 18.7h-.332L.265 11.91z" mask="url(#aD)"/>
        </g>
        <g transform="translate(126.418 2.424)">
            <mask id="aF" fill="#fff">
                <use xlink:href="#aE"/>
            </mask>
            <path fill="#25F9B9" d="M.265 11.24l18.81 19.035h-.331l-18.48-18.7z" mask="url(#aF)"/>
        </g>
        <g transform="translate(126.418 2.424)">
            <mask id="aH" fill="#fff">
                <use xlink:href="#aG"/>
            </mask>
            <path fill="#24F9BA" d="M.265 10.905l19.141 19.37h-.331L.265 11.24z" mask="url(#aH)"/>
        </g>
        <g transform="translate(126.418 2.424)">
            <mask id="aJ" fill="#fff">
                <use xlink:href="#aI"/>
            </mask>
            <path fill="#23F9BB" d="M.265 10.57l19.472 19.705h-.33L.264 10.905z" mask="url(#aJ)"/>
        </g>
        <g transform="translate(126.418 2.424)">
            <mask id="aL" fill="#fff">
                <use xlink:href="#aK"/>
            </mask>
            <path fill="#22F9BC" d="M.265 10.235l19.803 20.04h-.33L.264 10.57z" mask="url(#aL)"/>
        </g>
        <g transform="translate(126.418 2.424)">
            <mask id="aN" fill="#fff">
                <use xlink:href="#aM"/>
            </mask>
            <path fill="#21F9BD" d="M.265 9.9L20.4 30.275h-.332L.265 10.235z" mask="url(#aN)"/>
        </g>
        <g transform="translate(126.418 2.424)">
            <mask id="aP" fill="#fff">
                <use xlink:href="#aO"/>
            </mask>
            <path fill="#20F9BE" d="M.265 9.565l20.466 20.71H20.4L.265 9.9z" mask="url(#aP)"/>
        </g>
        <g transform="translate(126.418 2.424)">
            <mask id="aR" fill="#fff">
                <use xlink:href="#aQ"/>
            </mask>
            <path fill="#1FF8BE" d="M.265 9.23l20.797 21.045h-.331L.265 9.565z" mask="url(#aR)"/>
        </g>
        <g transform="translate(126.418 2.424)">
            <mask id="aT" fill="#fff">
                <use xlink:href="#aS"/>
            </mask>
            <path fill="#1EF8BF" d="M.265 8.894l21.128 21.38h-.33L.264 9.23z" mask="url(#aT)"/>
        </g>
        <g transform="translate(126.418 2.424)">
            <mask id="aV" fill="#fff">
                <use xlink:href="#aU"/>
            </mask>
            <path fill="#1DF8C0" d="M.265 8.559l21.46 21.715h-.332L.265 8.894z" mask="url(#aV)"/>
        </g>
        <g transform="translate(126.418 2.424)">
            <mask id="aX" fill="#fff">
                <use xlink:href="#aW"/>
            </mask>
            <path fill="#1CF8C1" d="M.265 8.224l21.79 22.05h-.33L.264 8.56z" mask="url(#aX)"/>
        </g>
        <g transform="translate(126.418 2.424)">
            <mask id="aZ" fill="#fff">
                <use xlink:href="#aY"/>
            </mask>
            <path fill="#1BF8C2" d="M.265 7.889l22.122 22.386h-.331L.265 8.225z" mask="url(#aZ)"/>
        </g>
        <g transform="translate(126.418 2.424)">
            <mask id="bb" fill="#fff">
                <use xlink:href="#ba"/>
            </mask>
            <path fill="#1AF8C3" d="M.265 7.553l22.453 22.722h-.331L.265 7.889z" mask="url(#bb)"/>
        </g>
        <g transform="translate(126.418 2.424)">
            <mask id="bd" fill="#fff">
                <use xlink:href="#bc"/>
            </mask>
            <path fill="#19F8C4" d="M.265 7.218l22.784 23.057h-.33L.264 7.554z" mask="url(#bd)"/>
        </g>
        <g transform="translate(126.418 2.424)">
            <mask id="bf" fill="#fff">
                <use xlink:href="#be"/>
            </mask>
            <path fill="#18F7C4" d="M.265 6.883L23.38 30.275h-.332L.265 7.219z" mask="url(#bf)"/>
        </g>
        <g transform="translate(126.418 2.424)">
            <mask id="bh" fill="#fff">
                <use xlink:href="#bg"/>
            </mask>
            <path fill="#17F7C5" d="M.265 6.548l23.447 23.727h-.331L.265 6.883z" mask="url(#bh)"/>
        </g>
        <g transform="translate(126.418 2.424)">
            <mask id="bj" fill="#fff">
                <use xlink:href="#bi"/>
            </mask>
            <path fill="#16F7C6" d="M.265 6.213l23.778 24.061h-.331L.265 6.548z" mask="url(#bj)"/>
        </g>
        <g transform="translate(126.418 2.424)">
            <mask id="bl" fill="#fff">
                <use xlink:href="#bk"/>
            </mask>
            <path fill="#15F7C7" d="M.265 5.878l24.109 24.397h-.331L.265 6.213z" mask="url(#bl)"/>
        </g>
        <g transform="translate(126.418 2.424)">
            <mask id="bn" fill="#fff">
                <use xlink:href="#bm"/>
            </mask>
            <path fill="#14F7C8" d="M.265 5.543l24.44 24.732h-.331L.264 5.878z" mask="url(#bn)"/>
        </g>
        <g transform="translate(126.418 2.424)">
            <mask id="bp" fill="#fff">
                <use xlink:href="#bo"/>
            </mask>
            <path fill="#13F7C9" d="M.265 5.208l24.771 25.066h-.33L.265 5.543z" mask="url(#bp)"/>
        </g>
        <g transform="translate(126.418 2.424)">
            <mask id="br" fill="#fff">
                <use xlink:href="#bq"/>
            </mask>
            <path fill="#12F7CA" d="M.265 4.872l25.103 25.403h-.332L.265 5.208z" mask="url(#br)"/>
        </g>
        <g transform="translate(126.418 2.424)">
            <mask id="bt" fill="#fff">
                <use xlink:href="#bs"/>
            </mask>
            <path fill="#11F6CA" d="M.265 4.537l25.434 25.738h-.331L.265 4.872z" mask="url(#bt)"/>
        </g>
        <g transform="translate(126.418 2.424)">
            <mask id="bv" fill="#fff">
                <use xlink:href="#bu"/>
            </mask>
            <path fill="#10F6CB" d="M.265 4.202L26.03 30.275H25.7L.265 4.537z" mask="url(#bv)"/>
        </g>
        <g transform="translate(126.418 2.424)">
            <mask id="bx" fill="#fff">
                <use xlink:href="#bw"/>
            </mask>
            <path fill="#0FF6CC" d="M.265 3.867L26.36 30.275h-.33L.264 4.202z" mask="url(#bx)"/>
        </g>
        <g transform="translate(126.418 2.424)">
            <mask id="bz" fill="#fff">
                <use xlink:href="#by"/>
            </mask>
            <path fill="#0EF6CD" d="M.265 3.532l26.428 26.743h-.332L.265 3.867z" mask="url(#bz)"/>
        </g>
        <g transform="translate(126.418 2.424)">
            <mask id="bB" fill="#fff">
                <use xlink:href="#bA"/>
            </mask>
            <path fill="#0DF6CE" d="M.265 3.197l26.759 27.078h-.331L.265 3.532z" mask="url(#bB)"/>
        </g>
        <g transform="translate(126.418 2.424)">
            <mask id="bD" fill="#fff">
                <use xlink:href="#bC"/>
            </mask>
            <path fill="#0CF6CF" d="M.265 2.862l27.09 27.412h-.331L.264 3.197z" mask="url(#bD)"/>
        </g>
        <g transform="translate(126.418 2.424)">
            <mask id="bF" fill="#fff">
                <use xlink:href="#bE"/>
            </mask>
            <path fill="#0BF6D0" d="M.265 2.527l27.421 27.748h-.331L.265 2.862z" mask="url(#bF)"/>
        </g>
        <g transform="translate(126.418 2.424)">
            <mask id="bH" fill="#fff">
                <use xlink:href="#bG"/>
            </mask>
            <path fill="#0AF5D0" d="M.265 2.191l27.752 28.084h-.33L.264 2.527z" mask="url(#bH)"/>
        </g>
        <g transform="translate(126.418 2.424)">
            <mask id="bJ" fill="#fff">
                <use xlink:href="#bI"/>
            </mask>
            <path fill="#09F5D1" d="M.265 1.856l28.084 28.419h-.332L.265 2.19z" mask="url(#bJ)"/>
        </g>
        <g transform="translate(126.418 2.424)">
            <mask id="bL" fill="#fff">
                <use xlink:href="#bK"/>
            </mask>
            <path fill="#08F5D2" d="M.265 1.521L28.68 30.275h-.331L.265 1.856z" mask="url(#bL)"/>
        </g>
        <g transform="translate(126.418 2.424)">
            <mask id="bN" fill="#fff">
                <use xlink:href="#bM"/>
            </mask>
            <path fill="#07F5D3" d="M.265 1.341l.077-.077 28.67 29.01h-.332L.265 1.522z" mask="url(#bN)"/>
        </g>
        <g transform="translate(126.418 2.424)">
            <mask id="bP" fill="#fff">
                <use xlink:href="#bO"/>
            </mask>
            <path fill="#06F5D4" d="M.342 1.264l.165-.168 28.718 29.06-.118.119h-.096z" mask="url(#bP)"/>
        </g>
        <g transform="translate(126.418 2.424)">
            <mask id="bR" fill="#fff">
                <use xlink:href="#bQ"/>
            </mask>
            <path fill="#05F5D5" d="M.507 1.096L.673.928l28.717 29.06-.165.168z" mask="url(#bR)"/>
        </g>
        <g transform="translate(126.418 2.424)">
            <mask id="bT" fill="#fff">
                <use xlink:href="#bS"/>
            </mask>
            <path fill="#04F5D6" d="M.673.928L.838.761l28.718 29.06-.166.167z" mask="url(#bT)"/>
        </g>
        <g transform="translate(126.418 2.424)">
            <mask id="bV" fill="#fff">
                <use xlink:href="#bU"/>
            </mask>
            <path fill="#03F4D6" d="M.838.761l.166-.168 28.717 29.06-.165.167z" mask="url(#bV)"/>
        </g>
        <g transform="translate(126.418 2.424)">
            <mask id="bX" fill="#fff">
                <use xlink:href="#bW"/>
            </mask>
            <path fill="#02F4D7" d="M1.004.593L1.17.426l28.717 29.059-.166.168z" mask="url(#bX)"/>
        </g>
        <g transform="translate(126.418 2.424)">
            <mask id="bZ" fill="#fff">
                <use xlink:href="#bY"/>
            </mask>
            <path fill="#01F4D8" d="M1.17.426l.165-.168 28.718 29.06-.166.167z" mask="url(#bZ)"/>
        </g>
        <g transform="translate(126.418 2.424)">
            <mask id="cb" fill="#fff">
                <use xlink:href="#ca"/>
            </mask>
            <path fill="#00F4D9" d="M1.335.258l.002-.002h.327L30.18 29.11v.078l-.128.129z" mask="url(#cb)"/>
        </g>
        <g transform="translate(126.418 2.424)">
            <mask id="cd" fill="#fff">
                <use xlink:href="#cc"/>
            </mask>
            <path fill="#00F4D9" d="M2.109.256l28.07 28.405v.45L1.665.256z" mask="url(#cd)"/>
        </g>
        <g transform="translate(126.418 2.424)">
            <mask id="cf" fill="#fff">
                <use xlink:href="#ce"/>
            </mask>
            <path fill="#00F3DA" d="M2.554.256L30.18 28.21v.45L2.109.256z" mask="url(#cf)"/>
        </g>
        <g transform="translate(126.418 2.424)">
            <mask id="ch" fill="#fff">
                <use xlink:href="#cg"/>
            </mask>
            <path fill="#00F2DA" d="M2.998.256L30.18 27.76v.45L2.554.256z" mask="url(#ch)"/>
        </g>
        <g transform="translate(126.418 2.424)">
            <mask id="cj" fill="#fff">
                <use xlink:href="#ci"/>
            </mask>
            <path fill="#00F1DB" d="M3.443.256L30.18 27.31v.45L2.998.256z" mask="url(#cj)"/>
        </g>
        <g transform="translate(126.418 2.424)">
            <mask id="cl" fill="#fff">
                <use xlink:href="#ck"/>
            </mask>
            <path fill="#00F0DC" d="M3.887.256L30.18 26.86v.45L3.443.256z" mask="url(#cl)"/>
        </g>
        <g transform="translate(126.418 2.424)">
            <mask id="cn" fill="#fff">
                <use xlink:href="#cm"/>
            </mask>
            <path fill="#00EFDC" d="M4.332.256L30.18 26.41v.45L3.887.256z" mask="url(#cn)"/>
        </g>
        <g transform="translate(126.418 2.424)">
            <mask id="cp" fill="#fff">
                <use xlink:href="#co"/>
            </mask>
            <path fill="#0ED" d="M4.777.256L30.18 25.96v.45L4.332.256z" mask="url(#cp)"/>
        </g>
        <g transform="translate(126.418 2.424)">
            <mask id="cr" fill="#fff">
                <use xlink:href="#cq"/>
            </mask>
            <path fill="#00EDDE" d="M5.222.256L30.18 25.51v.45L4.777.256z" mask="url(#cr)"/>
        </g>
        <g transform="translate(126.418 2.424)">
            <mask id="ct" fill="#fff">
                <use xlink:href="#cs"/>
            </mask>
            <path fill="#00ECDE" d="M5.666.256L30.18 25.06v.45L5.222.256z" mask="url(#ct)"/>
        </g>
        <g transform="translate(126.418 2.424)">
            <mask id="cv" fill="#fff">
                <use xlink:href="#cu"/>
            </mask>
            <path fill="#00EBDF" d="M6.11.256L30.18 24.61v.45L5.666.256z" mask="url(#cv)"/>
        </g>
        <g transform="translate(126.418 2.424)">
            <mask id="cx" fill="#fff">
                <use xlink:href="#cw"/>
            </mask>
            <path fill="#00EAE0" d="M6.556.256L30.18 24.16v.45L6.11.256z" mask="url(#cx)"/>
        </g>
        <g transform="translate(126.418 2.424)">
            <mask id="cz" fill="#fff">
                <use xlink:href="#cy"/>
            </mask>
            <path fill="#00E9E0" d="M7 .256L30.18 23.71v.45L6.556.256z" mask="url(#cz)"/>
        </g>
        <g transform="translate(126.418 2.424)">
            <mask id="cB" fill="#fff">
                <use xlink:href="#cA"/>
            </mask>
            <path fill="#00E8E1" d="M7.445.256L30.18 23.26v.45L7 .256z" mask="url(#cB)"/>
        </g>
        <g transform="translate(126.418 2.424)">
            <mask id="cD" fill="#fff">
                <use xlink:href="#cC"/>
            </mask>
            <path fill="#00E7E2" d="M7.89.256L30.18 22.81v.45L7.445.256z" mask="url(#cD)"/>
        </g>
        <g transform="translate(126.418 2.424)">
            <mask id="cF" fill="#fff">
                <use xlink:href="#cE"/>
            </mask>
            <path fill="#00E6E2" d="M8.334.256L30.18 22.36v.45L7.89.256z" mask="url(#cF)"/>
        </g>
        <g transform="translate(126.418 2.424)">
            <mask id="cH" fill="#fff">
                <use xlink:href="#cG"/>
            </mask>
            <path fill="#00E5E3" d="M8.78.256l21.4 21.655v.45L8.334.256z" mask="url(#cH)"/>
        </g>
        <g transform="translate(126.418 2.424)">
            <mask id="cJ" fill="#fff">
                <use xlink:href="#cI"/>
            </mask>
            <path fill="#00E4E4" d="M9.224.256L30.18 21.46v.45L8.78.256z" mask="url(#cJ)"/>
        </g>
        <g transform="translate(126.418 2.424)">
            <mask id="cL" fill="#fff">
                <use xlink:href="#cK"/>
            </mask>
            <path fill="#00E3E4" d="M9.669.256l20.51 20.755v.45L9.225.256z" mask="url(#cL)"/>
        </g>
        <g transform="translate(126.418 2.424)">
            <mask id="cN" fill="#fff">
                <use xlink:href="#cM"/>
            </mask>
            <path fill="#00E2E5" d="M10.113.256L30.18 20.56v.45L9.669.256z" mask="url(#cN)"/>
        </g>
        <g transform="translate(126.418 2.424)">
            <mask id="cP" fill="#fff">
                <use xlink:href="#cO"/>
            </mask>
            <path fill="#00E1E6" d="M10.558.256L30.18 20.11v.45L10.113.256z" mask="url(#cP)"/>
        </g>
        <g transform="translate(126.418 2.424)">
            <mask id="cR" fill="#fff">
                <use xlink:href="#cQ"/>
            </mask>
            <path fill="#00E0E6" d="M11.003.256L30.18 19.66v.45L10.558.256z" mask="url(#cR)"/>
        </g>
        <g transform="translate(126.418 2.424)">
            <mask id="cT" fill="#fff">
                <use xlink:href="#cS"/>
            </mask>
            <path fill="#00DFE7" d="M11.447.256L30.18 19.21v.45L11.003.256z" mask="url(#cT)"/>
        </g>
        <g transform="translate(126.418 2.424)">
            <mask id="cV" fill="#fff">
                <use xlink:href="#cU"/>
            </mask>
            <path fill="#00DEE8" d="M11.892.256L30.18 18.76v.45L11.447.256z" mask="url(#cV)"/>
        </g>
        <g transform="translate(126.418 2.424)">
            <mask id="cX" fill="#fff">
                <use xlink:href="#cW"/>
            </mask>
            <path fill="#00DDE8" d="M12.337.256L30.18 18.31v.45L11.892.256z" mask="url(#cX)"/>
        </g>
        <g transform="translate(126.418 2.424)">
            <mask id="cZ" fill="#fff">
                <use xlink:href="#cY"/>
            </mask>
            <path fill="#00DCE9" d="M12.782.256L30.18 17.86v.45L12.337.256z" mask="url(#cZ)"/>
        </g>
        <g transform="translate(126.418 2.424)">
            <mask id="db" fill="#fff">
                <use xlink:href="#da"/>
            </mask>
            <path fill="#00DBEA" d="M13.226.256L30.18 17.41v.45L12.782.256z" mask="url(#db)"/>
        </g>
        <g transform="translate(126.418 2.424)">
            <mask id="dd" fill="#fff">
                <use xlink:href="#dc"/>
            </mask>
            <path fill="#00DAEA" d="M13.671.256L30.18 16.96v.45L13.226.256z" mask="url(#dd)"/>
        </g>
        <g transform="translate(126.418 2.424)">
            <mask id="df" fill="#fff">
                <use xlink:href="#de"/>
            </mask>
            <path fill="#00D9EB" d="M14.116.256L30.18 16.512v.45L13.671.255z" mask="url(#df)"/>
        </g>
        <g transform="translate(126.418 2.424)">
            <mask id="dh" fill="#fff">
                <use xlink:href="#dg"/>
            </mask>
            <path fill="#00D8EC" d="M14.56.256L30.18 16.06v.45L14.116.257z" mask="url(#dh)"/>
        </g>
        <g transform="translate(126.418 2.424)">
            <mask id="dj" fill="#fff">
                <use xlink:href="#di"/>
            </mask>
            <path fill="#00D6EC" d="M15.005.256L30.18 15.61v.45L14.56.256z" mask="url(#dj)"/>
        </g>
        <g transform="translate(126.418 2.424)">
            <mask id="dl" fill="#fff">
                <use xlink:href="#dk"/>
            </mask>
            <path fill="#00D5ED" d="M15.45.256L30.18 15.16v.45L15.005.256z" mask="url(#dl)"/>
        </g>
        <g transform="translate(126.418 2.424)">
            <mask id="dn" fill="#fff">
                <use xlink:href="#dm"/>
            </mask>
            <path fill="#00D4EE" d="M15.894.256L30.18 14.71v.45L15.45.256z" mask="url(#dn)"/>
        </g>
        <g transform="translate(126.418 2.424)">
            <mask id="dp" fill="#fff">
                <use xlink:href="#do"/>
            </mask>
            <path fill="#00D3EE" d="M16.34.256L30.18 14.26v.45L15.894.256z" mask="url(#dp)"/>
        </g>
        <g transform="translate(126.418 2.424)">
            <mask id="dr" fill="#fff">
                <use xlink:href="#dq"/>
            </mask>
            <path fill="#00D2EF" d="M16.784.256L30.18 13.81v.45L16.34.256z" mask="url(#dr)"/>
        </g>
        <g transform="translate(126.418 2.424)">
            <mask id="dt" fill="#fff">
                <use xlink:href="#ds"/>
            </mask>
            <path fill="#00D1F0" d="M17.229.256l12.95 13.105v.45L16.785.256z" mask="url(#dt)"/>
        </g>
        <g transform="translate(126.418 2.424)">
            <mask id="dv" fill="#fff">
                <use xlink:href="#du"/>
            </mask>
            <path fill="#00D0F0" d="M17.673.256L30.18 12.91v.45L17.229.256z" mask="url(#dv)"/>
        </g>
        <g transform="translate(126.418 2.424)">
            <mask id="dx" fill="#fff">
                <use xlink:href="#dw"/>
            </mask>
            <path fill="#00CFF1" d="M18.118.256L30.18 12.46v.45L17.673.256z" mask="url(#dx)"/>
        </g>
        <g transform="translate(126.418 2.424)">
            <mask id="dz" fill="#fff">
                <use xlink:href="#dy"/>
            </mask>
            <path fill="#00CEF2" d="M18.563.256L30.18 12.01v.45L18.118.256z" mask="url(#dz)"/>
        </g>
        <g transform="translate(126.418 2.424)">
            <mask id="dB" fill="#fff">
                <use xlink:href="#dA"/>
            </mask>
            <path fill="#00CDF2" d="M19.008.256L30.18 11.56v.45L18.563.256z" mask="url(#dB)"/>
        </g>
        <g transform="translate(126.418 2.424)">
            <mask id="dD" fill="#fff">
                <use xlink:href="#dC"/>
            </mask>
            <path fill="#00CCF3" d="M19.452.256L30.18 11.11v.45L19.008.256z" mask="url(#dD)"/>
        </g>
        <g transform="translate(126.418 2.424)">
            <mask id="dF" fill="#fff">
                <use xlink:href="#dE"/>
            </mask>
            <path fill="#00CBF4" d="M19.897.256L30.18 10.66v.45L19.452.256z" mask="url(#dF)"/>
        </g>
        <g transform="translate(126.418 2.424)">
            <mask id="dH" fill="#fff">
                <use xlink:href="#dG"/>
            </mask>
            <path fill="#00CAF4" d="M20.341.256l9.839 9.956v.45L19.897.255z" mask="url(#dH)"/>
        </g>
        <g transform="translate(126.418 2.424)">
            <mask id="dJ" fill="#fff">
                <use xlink:href="#dI"/>
            </mask>
            <path fill="#00C9F5" d="M20.786.256L30.18 9.76v.45L20.341.257z" mask="url(#dJ)"/>
        </g>
        <g transform="translate(126.418 2.424)">
            <mask id="dL" fill="#fff">
                <use xlink:href="#dK"/>
            </mask>
            <path fill="#00C8F6" d="M21.231.256l8.95 9.055v.45L20.785.256z" mask="url(#dL)"/>
        </g>
        <g transform="translate(126.418 2.424)">
            <mask id="dN" fill="#fff">
                <use xlink:href="#dM"/>
            </mask>
            <path fill="#00C7F6" d="M21.676.256l8.504 8.606v.45L21.231.255z" mask="url(#dN)"/>
        </g>
        <g transform="translate(126.418 2.424)">
            <mask id="dP" fill="#fff">
                <use xlink:href="#dO"/>
            </mask>
            <path fill="#00C6F7" d="M22.12.256l8.06 8.155v.45L21.676.257z" mask="url(#dP)"/>
        </g>
        <g transform="translate(126.418 2.424)">
            <mask id="dR" fill="#fff">
                <use xlink:href="#dQ"/>
            </mask>
            <path fill="#00C5F8" d="M22.565.256L30.18 7.96v.45L22.12.256z" mask="url(#dR)"/>
        </g>
        <g transform="translate(126.418 2.424)">
            <mask id="dT" fill="#fff">
                <use xlink:href="#dS"/>
            </mask>
            <path fill="#00C4F8" d="M23.01.256l7.17 7.255v.45L22.565.256z" mask="url(#dT)"/>
        </g>
        <g transform="translate(126.418 2.424)">
            <mask id="dV" fill="#fff">
                <use xlink:href="#dU"/>
            </mask>
            <path fill="#00C3F9" d="M23.454.256L30.18 7.06v.45L23.01.256z" mask="url(#dV)"/>
        </g>
        <g transform="translate(126.418 2.424)">
            <mask id="dX" fill="#fff">
                <use xlink:href="#dW"/>
            </mask>
            <path fill="#00C2FA" d="M23.9.256l6.28 6.355v.45L23.455.256z" mask="url(#dX)"/>
        </g>
        <g transform="translate(126.418 2.424)">
            <mask id="dZ" fill="#fff">
                <use xlink:href="#dY"/>
            </mask>
            <path fill="#00C1FA" d="M24.344.256L30.18 6.16v.45L23.9.256z" mask="url(#dZ)"/>
        </g>
        <g transform="translate(126.418 2.424)">
            <mask id="eb" fill="#fff">
                <use xlink:href="#ea"/>
            </mask>
            <path fill="#00C0FB" d="M24.788.256L30.18 5.71v.45L24.344.256z" mask="url(#eb)"/>
        </g>
        <g transform="translate(126.418 2.424)">
            <mask id="ed" fill="#fff">
                <use xlink:href="#ec"/>
            </mask>
            <path fill="#00BFFC" d="M25.233.256L30.18 5.26v.45L24.788.256z" mask="url(#ed)"/>
        </g>
        <g transform="translate(126.418 2.424)">
            <mask id="ef" fill="#fff">
                <use xlink:href="#ee"/>
            </mask>
            <path fill="#00BEFC" d="M25.678.256L30.18 4.81v.45L25.233.256z" mask="url(#ef)"/>
        </g>
        <g transform="translate(126.418 2.424)">
            <mask id="eh" fill="#fff">
                <use xlink:href="#eg"/>
            </mask>
            <path fill="#00BDFD" d="M26.123.256L30.18 4.36v.45L25.678.256z" mask="url(#eh)"/>
        </g>
        <g transform="translate(126.418 2.424)">
            <mask id="ej" fill="#fff">
                <use xlink:href="#ei"/>
            </mask>
            <path fill="#00BCFE" d="M26.567.256l3.613 3.656v.45L26.123.255z" mask="url(#ej)"/>
        </g>
        <g transform="translate(126.418 2.424)">
            <mask id="el" fill="#fff">
                <use xlink:href="#ek"/>
            </mask>
            <path fill="#00BBFE" d="M27.012.256L30.18 3.46v.45L26.567.257z" mask="url(#el)"/>
        </g>
        <g transform="translate(126.418 2.424)">
            <mask id="en" fill="#fff">
                <use xlink:href="#em"/>
            </mask>
            <path fill="#00BAFF" d="M27.457.256L30.18 3.01v.45L27.012.256z" mask="url(#en)"/>
        </g>
        <g transform="translate(126.418 2.424)">
            <mask id="ep" fill="#fff">
                <use xlink:href="#eo"/>
            </mask>
            <path fill="#00BAFF" d="M30.18 3.011L27.457.256h2.723z" mask="url(#ep)"/>
        </g>
        <g>
            <path fill="#000" d="M163.408 4.147h.477v-2.54h-.477v-.472h1.781l.691 2.253h.08l.68-2.253h1.747v.472h-.51v2.54h.51v.472h-1.735v-.472h.397V1.756h-.136l-.908 2.863h-.51l-.953-2.863h-.159v2.391h.42v.472h-1.395v-.472zm-3.164 0h.623V1.56h-.135c-.42 0-.522.15-.783.978h-.374V1.135H163v1.403h-.386c-.227-.805-.351-.978-.77-.978h-.137v2.587h.613v.472h-2.076v-.472z"/>
            <path fill="#231F20" d="M112.168 27.305c-2.537 0-4.324-2.445-4.324-6.998 0-4.51 1.455-7.081 4.324-7.081 3.077 0 4.45 3.246 4.45 6.997 0 4.342-1.997 7.082-4.45 7.082zm-1.913 3.118c2.828 0 5.032-1.601 6.362-4.468v4.047h7.402v-3.12h-2.745V.96h-7.983v3.288h3.119v9.273c-1.207-2.023-3.078-3.372-5.864-3.372-2.038 0-3.783.759-5.156 2.108-1.746 1.812-2.828 4.932-2.828 8.219 0 3.119.874 6.028 2.703 7.882a6.953 6.953 0 0 0 4.99 2.065zm-31.228-.42H89.34v-3.12h-2.537v-7.46c0-3.457 2.245-5.607 4.408-5.607.914 0 1.622.253 2.12.801.665.675.998 1.77.998 3.162v9.104h-2.578v3.12h10.354v-3.12h-2.952V16.598c0-3.878-1.913-6.407-5.447-6.407-3.12 0-5.281 1.855-7.11 5.311v-5.016h-7.569v3.12h2.91v13.277h-2.91v3.12zM69.09 12.635c2.62 0 3.784 2.065 4.033 5.859h-8.316c.332-4.3 1.913-5.86 4.283-5.86zm8.857 8.093c.208-5.648-2.537-10.58-8.608-10.58-5.613 0-9.73 4.426-9.73 10.327 0 5.733 3.576 9.947 9.647 9.947 4.74 0 7.61-2.36 8.566-6.49h-2.495c-1.04 2.486-2.703 3.498-4.99 3.498-3.451 0-5.406-1.939-5.572-6.702h13.182zm-28.36 9.694c4.533 0 7.527-2.697 8.442-6.997h-2.537c-.873 2.571-2.62 3.92-4.906 3.92-3.618 0-5.49-2.74-5.49-7.25 0-4.846 2.288-7.502 5.115-7.502 1.83 0 2.994.674 3.577 1.56-.79.337-1.705 1.348-1.705 2.57 0 1.518 1.04 2.783 2.827 2.783 1.913 0 2.953-1.476 2.953-3.541 0-2.698-2.994-5.817-7.776-5.817-5.946 0-10.23 4.3-10.23 10.411 0 5.733 3.577 9.863 9.73 9.863zm-27.276-.042h2.744l.54-2.613c1.248 1.517 3.244 2.655 5.864 2.655 4.49 0 7.068-3.16 7.068-6.28 0-3.54-2.411-4.974-6.777-6.154-3.493-.927-4.824-1.686-4.824-3.246 0-1.433 1.206-2.233 2.703-2.233 2.412 0 3.909 1.686 5.323 4.34h2.785v-6.7h-2.785l-.5 2.275c-1.04-1.475-2.869-2.276-5.03-2.276-4.117 0-6.82 2.698-6.82 5.986 0 3.245 2.037 4.847 6.653 6.111 3.825 1.012 4.99 1.77 4.99 3.372 0 1.391-.874 2.36-2.911 2.36-2.495 0-4.907-1.98-6.196-4.889h-2.827v7.292zm-13.582-3.16c-1.996 0-2.87-1.224-2.87-2.91 0-2.233 1.082-2.908 4.658-3.498 1.04-.168 1.497-.253 1.871-.421v2.74c0 2.402-1.83 4.088-3.66 4.088zm-2.246 3.076c2.62 0 5.115-1.307 6.28-3.793h.207c.125 2.613 1.871 3.709 3.868 3.709 2.286 0 3.742-1.138 4.657-3.92l-1.705-.801c-.375 1.18-.874 1.728-1.414 1.728-.832 0-1.164-.38-1.164-1.307v-9.441c0-4.089-2.33-6.323-7.319-6.323-4.49 0-8.4 1.813-8.4 5.1 0 1.391.957 2.698 2.787 2.698 1.622 0 2.66-1.096 2.66-2.445 0-.927-.457-1.728-1.122-2.107.874-.506 1.788-.717 2.91-.717 2.496 0 3.66.97 3.66 3.457v1.896c0 .633-.332.675-2.703 1.012-4.075.59-6.112 1.222-7.526 2.656-.956.969-1.414 2.149-1.414 3.498 0 3.034 2.246 5.1 5.738 5.1z"/>
            <g fill="#82888C">
                <path d="M1.144 48.145v-7.959h1.999v3.04h2.785v-3.04h2v7.959h-2v-3.162H3.143v3.162zM11.742 44.97h1.746l-.213-.608c-.466-1.324-.626-2.325-.626-2.325h-.054s-.2 1.014-.64 2.311l-.213.621zm2.333 1.688h-2.892l-.493 1.486H8.597l2.839-7.958h2.438l2.867 7.958h-2.146l-.52-1.486zM19.408 43.794h1.066c.64 0 1.026-.23 1.026-.932 0-.622-.36-.96-1.013-.96h-1.08v1.892zm2.345 4.35c-.253-.189-.36-.513-.44-.85l-.28-1.122c-.146-.594-.386-.69-.932-.69h-.693v2.662h-2v-7.958h3.212c1.747 0 2.92.608 2.92 2.487 0 1.23-.667 1.877-1.694 2v.04c.721.122 1.094.419 1.28 1.108l.4 1.459c.093.324.187.581.453.864h-2.226zM27.154 44.226c.333 1.082.44 2.149.44 2.149h.053s.093-1.08.4-2.135l1.186-4.054h2.106l-2.586 7.958h-2.386l-2.586-7.958h2.133l1.24 4.04zM33.62 44.97h1.746l-.213-.608a14.856 14.856 0 0 1-.627-2.325h-.053s-.2 1.014-.64 2.311l-.213.621zm2.333 1.688H33.06l-.493 1.486h-2.092l2.838-7.958h2.44l2.866 7.958h-2.146l-.52-1.486zM41.286 43.794h1.066c.64 0 1.027-.23 1.027-.932 0-.622-.36-.96-1.013-.96h-1.08v1.892zm2.346 4.35c-.253-.189-.36-.513-.44-.85l-.28-1.122c-.146-.594-.386-.69-.933-.69h-.693v2.662h-1.999v-7.958H42.5c1.746 0 2.919.608 2.919 2.487 0 1.23-.666 1.877-1.693 2v.04c.72.122 1.094.419 1.28 1.108l.4 1.459c.093.324.187.581.453.864h-2.226zM49.431 46.429c1.36 0 2.093-.514 2.093-2.23 0-1.783-.72-2.297-1.986-2.297h-.813v4.527h.706zm-2.705 1.716v-7.959h3.04c2.158 0 3.838 1.095 3.838 3.891 0 2.947-1.68 4.068-3.986 4.068h-2.892zM59.151 46.429h1.253c.587 0 .933-.163.933-.77 0-.5-.346-.744-.933-.744h-1.253v1.514zm1-2.973c.546 0 .893-.203.893-.756 0-.595-.334-.798-.933-.798h-.96v1.554h1zm1.48.635c1.172.176 1.732.946 1.732 1.892 0 1.297-.867 2.162-2.785 2.162h-3.426v-7.959h3.453c1.585 0 2.425.757 2.425 2 0 .986-.547 1.622-1.4 1.85v.055zM70.923 40.186v5.283c0 2.162-1.493 2.838-3.306 2.838s-3.32-.676-3.32-2.838v-5.283h2v4.703c0 1.026.174 1.73 1.32 1.73 1.133 0 1.306-.704 1.306-1.757v-4.676h2zM73.203 45.523c.147.716.706 1.23 1.413 1.23.52 0 .92-.202.92-.662s-.267-.663-1.2-.946c-2-.622-2.639-1.378-2.639-2.688 0-1.852 1.426-2.446 2.853-2.446 1.665 0 2.905.54 3.079 2.053l-2 .541c-.066-.649-.56-.905-1.04-.905-.413 0-.772.162-.772.607 0 .46.36.676 1.226.919 1.786.554 2.573 1.136 2.573 2.676 0 1.783-1.427 2.405-3.16 2.405-1.532 0-2.612-.486-3.066-1.906l1.813-.878zM78.697 48.145h2v-7.959h-2zM86.748 43.794c.427.581.587.932.587.932h.054s-.04-.621-.04-1.634v-2.906h1.999v7.958H87.56l-2.666-3.526c-.506-.662-.692-1.067-.692-1.067h-.054s.08.594.08 1.77v2.823H82.23v-7.958h1.852l2.666 3.608zM96.294 48.145h-5.412v-7.959h5.412v1.757h-3.412v1.324h2.998v1.688h-2.998v1.433h3.412zM98.574 45.523c.147.716.706 1.23 1.413 1.23.52 0 .92-.202.92-.662s-.267-.663-1.2-.946c-1.999-.622-2.639-1.378-2.639-2.688 0-1.852 1.426-2.446 2.853-2.446 1.666 0 2.905.54 3.079 2.053l-2 .541c-.066-.649-.56-.905-1.04-.905-.413 0-.772.162-.772.607 0 .46.36.676 1.226.919 1.786.554 2.573 1.136 2.573 2.676 0 1.783-1.427 2.405-3.16 2.405-1.532 0-2.613-.486-3.065-1.906l1.812-.878zM105.147 45.523c.147.716.706 1.23 1.414 1.23.52 0 .92-.202.92-.662s-.268-.663-1.2-.946c-2-.622-2.64-1.378-2.64-2.688 0-1.852 1.426-2.446 2.853-2.446 1.666 0 2.905.54 3.079 2.053l-2 .541c-.066-.649-.56-.905-1.04-.905-.412 0-.772.162-.772.607 0 .46.36.676 1.226.919 1.787.554 2.572 1.136 2.572 2.676 0 1.783-1.426 2.405-3.158 2.405-1.533 0-2.614-.486-3.067-1.906l1.813-.878zM115.12 43.794h1.065c.64 0 1.027-.23 1.027-.932 0-.622-.36-.96-1.013-.96h-1.08v1.892zm2.345 4.35c-.253-.189-.36-.513-.44-.85l-.28-1.122c-.146-.594-.386-.69-.933-.69h-.693v2.662h-1.999v-7.958h3.212c1.746 0 2.919.608 2.919 2.487 0 1.23-.666 1.877-1.693 2v.04c.72.122 1.094.419 1.28 1.108l.4 1.459c.093.324.187.581.453.864h-2.226zM125.971 48.145h-5.412v-7.959h5.412v1.757h-3.412v1.324h2.999v1.688h-3v1.433h3.413zM129.678 44.226c.333 1.082.44 2.149.44 2.149h.053s.093-1.08.4-2.135l1.186-4.054h2.106l-2.586 7.958h-2.385l-2.586-7.958h2.132l1.24 4.04zM134.532 48.145h1.999v-7.959h-2zM143.476 48.145h-5.412v-7.959h5.412v1.757h-3.412v1.324h2.999v1.688h-3v1.433h3.413zM151.728 44.362a29.76 29.76 0 0 1 .36 2.283h.053s.107-1.203.307-2.27l.773-4.189h2.04l-1.627 7.959h-2.918l-.801-3.675a15.285 15.285 0 0 1-.293-2.27h-.053s-.067 1.175-.32 2.282l-.853 3.663h-2.826l-1.627-7.959h2.12l.813 4.176c.214 1.107.333 2.283.333 2.283h.054s.12-1.19.333-2.27l.84-4.189h2.412l.88 4.176z"/>
            </g>
        </g>
    </g>
</svg>
