<svg xmlns="http://www.w3.org/2000/svg" width="14.057" height="26" viewBox="0 0 14.057 26">
  <g id="facebook" transform="translate(-22.077)">
    <path id="Path_6" data-name="Path 6" d="M35.6.005,32.233,0C28.445,0,26,2.511,26,6.4v2.95h-3.39a.53.53,0,0,0-.53.53v4.275a.53.53,0,0,0,.53.53H26V25.47a.53.53,0,0,0,.53.53H30.95a.53.53,0,0,0,.53-.53V14.684h3.964a.53.53,0,0,0,.53-.53l0-4.275a.531.531,0,0,0-.53-.53H31.48v-2.5c0-1.2.286-1.812,1.852-1.812H35.6a.53.53,0,0,0,.53-.53V.536A.53.53,0,0,0,35.6.005Z" fill="#1a2a4b"/>
  </g>
</svg>
