<svg xmlns="http://www.w3.org/2000/svg" width="29" height="29" viewBox="0 0 29 29">
    <g fill="#495264" fill-rule="evenodd" stroke="#495264" stroke-width=".6">
        <path d="M12.807.636C6.135.636.727 6.044.727 12.716s5.408 12.08 12.08 12.08 12.08-5.408 12.08-12.08S19.48.636 12.807.636m0 .909c6.16 0 11.171 5.012 11.171 11.17 0 6.16-5.012 11.172-11.17 11.172-6.16 0-11.172-5.012-11.172-11.171 0-6.16 5.012-11.171 11.171-11.171"/>
        <path d="M27.395 28.653a.457.457 0 0 1-.322-.133l-6.508-6.51a.455.455 0 0 1 .643-.642l6.509 6.508a.456.456 0 0 1-.322.777"/>
    </g>
</svg>
