<svg xmlns="http://www.w3.org/2000/svg" width="27.417" height="24.593" viewBox="0 0 27.417 24.593">
  <path id="like" d="M14.471,3.2a.752.752,0,0,1-1.047.01,7.686,7.686,0,0,0-6.77-2.04,7.217,7.217,0,0,0-5.526,5.7A7.47,7.47,0,0,0,1,8.072a7.26,7.26,0,0,0,2.139,5.177l10.28,10.615a.765.765,0,0,0,1.094,0l10.618-10.75a7.261,7.261,0,0,0-2.71-11.61A7.4,7.4,0,0,0,14.471,3.2Z" transform="translate(-0.299 -0.203)" fill="none" stroke="#1a2a4b" stroke-linecap="round" stroke-linejoin="round" stroke-width="1.4" fill-rule="evenodd"/>
</svg>
