<svg xmlns="http://www.w3.org/2000/svg" width="26" height="24.845" viewBox="0 0 26 24.845">
  <g id="linkedin" transform="translate(0 -9.558)">
    <path id="LinkedIn-2" data-name="LinkedIn" d="M26,24.79V34.4H20.427V25.434c0-2.253-.806-3.791-2.823-3.791a3.049,3.049,0,0,0-2.859,2.039,3.813,3.813,0,0,0-.185,1.359V34.4H8.986s.075-15.19,0-16.764H14.56v2.376c-.011.018-.026.037-.037.054h.037v-.054a5.535,5.535,0,0,1,5.023-2.77C23.251,17.245,26,19.641,26,24.79ZM3.154,9.558a2.9,2.9,0,1,0-.074,5.794h.037a2.906,2.906,0,1,0,.037-5.794ZM.331,34.4H5.9V17.639H.331Z" transform="translate(0 0)" fill="#1a2a4b"/>
  </g>
</svg>
