<svg xmlns="http://www.w3.org/2000/svg" width="33" height="27" viewBox="0 0 33 27">
    <g fill="none" fill-rule="evenodd">
        <path fill="#00AFFF" d="M11.292 11.813a1.25 1.25 0 1 1-2.498 0 1.25 1.25 0 0 1 2.498 0M17.83 11.813a1.25 1.25 0 1 1-2.497 0 1.25 1.25 0 0 1 2.498 0M24.37 11.813a1.25 1.25 0 1 1-2.499 0 1.25 1.25 0 0 1 2.498 0"/>
        <path stroke="#00AFFF" stroke-linecap="round" stroke-width="1.4" d="M30.03 21.031h-3.007a.87.87 0 0 0-.71.366l-4.2 4.293a.439.439 0 0 1-.795-.256v-3.528a.874.874 0 0 0-.874-.875H3.194c-.97 0-1.755-.785-1.755-1.756V3.195c0-.97.786-1.756 1.756-1.756H30.03c.969 0 1.755.786 1.755 1.756v16.08c0 .97-.786 1.756-1.755 1.756z"/>
    </g>
</svg>
