<svg xmlns="http://www.w3.org/2000/svg" width="20" height="20" viewBox="0 0 20 20">
    <g fill="#495264" fill-rule="evenodd" stroke="#495264" stroke-width=".5">
        <path d="M8.871.424a8.053 8.053 0 1 0 0 16.107 8.053 8.053 0 1 0 0-16.107m0 .606c4.107 0 7.448 3.341 7.448 7.447s-3.341 7.448-7.448 7.448c-4.106 0-7.447-3.342-7.447-7.448S4.765 1.03 8.871 1.03"/>
        <path d="M18.597 19.102a.304.304 0 0 1-.215-.089l-4.339-4.34a.303.303 0 0 1 .429-.428l4.34 4.34a.304.304 0 0 1-.215.517"/>
    </g>
</svg>
