<svg xmlns="http://www.w3.org/2000/svg" xmlns:xlink="http://www.w3.org/1999/xlink" width="52" height="52" viewBox="0 0 52 52">
    <defs>
        <linearGradient id="b" x1="124.566%" x2="-23.913%" y1="0%" y2="90.747%">
            <stop offset="0%" stop-color="#4FFF96"/>
            <stop offset="52.836%" stop-color="#00F4D9"/>
            <stop offset="100%" stop-color="#00BAFF"/>
        </linearGradient>
        <circle id="a" cx="25" cy="25" r="25"/>
        <path id="d" d="M.69.614h20.896v21.362H.69z"/>
    </defs>
    <g fill="none" fill-rule="evenodd">
        <circle cx="27" cy="27" r="25" fill="#00BAFF" fill-rule="nonzero"/>
        <mask id="c" fill="#fff">
            <use xlink:href="#a"/>
        </mask>
        <use fill="url(#b)" fill-rule="nonzero" xlink:href="#a"/>
        <g mask="url(#c)">
            <path fill="#FFF" d="M16.662 15.948c-.19-.173-.357-.226-.505-.23l-8.633-.71c-.441-.066-.887.314-.929.781-.039.466.346.862.786.878l6.875.57L.234 31.585a.835.835 0 0 0 .025 1.183.844.844 0 0 0 1.187-.024L15.47 18.398l.856 6.82c.007.468.495.803.963.765.36-.029.804-.6.694-.974l-1.068-8.567a.706.706 0 0 0-.253-.494"/>
            <path stroke="#FFF" stroke-width=".5" d="M16.662 15.948c-.19-.173-.357-.226-.505-.23l-8.633-.71c-.441-.066-.887.314-.929.781-.039.466.346.862.786.878l6.875.57L.234 31.585a.835.835 0 0 0 .025 1.183.844.844 0 0 0 1.187-.024L15.47 18.398l.856 6.82c.007.468.495.803.963.765.36-.029.804-.6.694-.974l-1.068-8.567a.706.706 0 0 0-.253-.494z"/>
            <g transform="translate(20 1)">
                <mask id="e" fill="#fff">
                    <use xlink:href="#d"/>
                </mask>
                <path fill="#FFF" d="M2.871 20.944c.274.237.509.304.719.306l12.143.72c.622.076 1.235-.474 1.277-1.133.041-.658-.513-1.202-1.13-1.21l-9.673-.58L21.277 2.59A1.18 1.18 0 1 0 19.535.997L4.466 17.454 3.04 7.871c-.03-.659-.721-1.114-1.378-1.048-.506.053-1.11.872-.943 1.397L2.5 20.256c.045.31.14.479.37.688" mask="url(#e)"/>
            </g>
        </g>
    </g>
</svg>
