<svg id="whatsapp-mobile-active" xmlns="http://www.w3.org/2000/svg" width="16" height="16.01" viewBox="0 0 16 16.01">
  <path id="Path_9" data-name="Path 9" d="M16,7.6A7.86,7.86,0,0,0,.295,7.461c0,.109-.008.226-.008.342A7.716,7.716,0,0,0,1.415,11.83L0,16.01l4.348-1.382A7.865,7.865,0,0,0,16,7.8v-.2ZM11.747,9.376c-.2-.1-1.141-.561-1.32-.622s-.307-.1-.43.1a9.054,9.054,0,0,1-.616.744c-.109.131-.218.144-.416.048A5.282,5.282,0,0,1,7.419,8.7,5.811,5.811,0,0,1,6.345,7.372c-.109-.192-.007-.294.089-.39s.192-.218.287-.334a.752.752,0,0,0,.069-.089c.047-.076.075-.137.123-.226A.359.359,0,0,0,6.9,6q-.3-.708-.595-1.422c-.164-.383-.321-.314-.437-.314s-.239-.02-.369-.02a.717.717,0,0,0-.513.238,2.163,2.163,0,0,0-.67,1.594,2.26,2.26,0,0,0,.095.649A4.323,4.323,0,0,0,5.1,8.048,7.857,7.857,0,0,0,8.39,10.935c1.956.766,1.956.512,2.311.478A1.9,1.9,0,0,0,12,10.5a1.561,1.561,0,0,0,.116-.909,1.125,1.125,0,0,0-.369-.219Zm-3.6,4.978a6.59,6.59,0,0,1-3.63-1.081l-2.543.808L2.8,11.646A6.528,6.528,0,0,1,1.538,7.8c0-.219.014-.431.034-.636a6.608,6.608,0,0,1,13.157.123c.013.164.02.335.02.513a6.586,6.586,0,0,1-6.606,6.551Z" fill="#1ad844" fill-rule="evenodd"/>
</svg>
